<svg width="110" height="17" viewBox="0 0 110 17" fill="none" xmlns="http://www.w3.org/2000/svg">
<path d="M7.67834 16.11C6.66634 16.11 5.69834 15.934 4.77434 15.582C3.86501 15.2153 3.05834 14.6873 2.35434 13.998C1.65034 13.294 1.09301 12.4507 0.682344 11.468C0.286344 10.4707 0.0883441 9.334 0.0883441 8.058C0.0883441 6.958 0.293677 5.93867 0.704344 5C1.11501 4.06133 1.67968 3.24 2.39834 2.536C3.13168 1.81733 3.98234 1.26 4.95034 0.863999C5.91834 0.467999 6.96701 0.269999 8.09634 0.269999C9.50434 0.269999 10.7803 0.577999 11.9243 1.194C13.0683 1.79533 13.919 2.624 14.4763 3.68L11.2863 6.122C10.9783 5.506 10.5163 5.01467 9.90034 4.648C9.28434 4.26667 8.63168 4.076 7.94234 4.076C7.42901 4.076 6.95968 4.17867 6.53434 4.384C6.10901 4.58933 5.73501 4.87533 5.41234 5.242C5.10434 5.60867 4.86234 6.04867 4.68634 6.562C4.52501 7.06067 4.44434 7.61067 4.44434 8.212C4.44434 8.828 4.53234 9.38533 4.70834 9.884C4.88434 10.3827 5.12634 10.8153 5.43434 11.182C5.75701 11.534 6.13834 11.8127 6.57834 12.018C7.01834 12.2087 7.50968 12.304 8.05234 12.304C8.74168 12.304 9.40168 12.1353 10.0323 11.798C10.663 11.446 11.235 10.9547 11.7483 10.324V14.504C10.575 15.5747 9.21834 16.11 7.67834 16.11ZM11.5283 10.764H8.64634V7.684H15.0703V16H11.5283V10.764ZM17.628 16V0.379999H24.8C25.5627 0.379999 26.2667 0.533999 26.912 0.842C27.5574 1.15 28.1147 1.568 28.584 2.096C29.0534 2.60933 29.4127 3.18867 29.662 3.834C29.926 4.47933 30.058 5.132 30.058 5.792C30.058 6.39333 29.97 6.97267 29.794 7.53C29.618 8.08733 29.3614 8.60067 29.024 9.07C28.6867 9.52467 28.2834 9.92067 27.814 10.258L31.114 16H26.406L23.656 11.204H21.918V16H17.628ZM21.918 7.464H24.624C24.8 7.464 24.9687 7.398 25.13 7.266C25.2914 7.134 25.4234 6.94333 25.526 6.694C25.6434 6.44467 25.702 6.144 25.702 5.792C25.702 5.42533 25.636 5.12467 25.504 4.89C25.3867 4.64067 25.2327 4.45 25.042 4.318C24.866 4.186 24.69 4.12 24.514 4.12H21.918V7.464ZM36.5217 0.379999H41.3177L46.2897 16H41.9337L40.9877 12.942H36.8297L35.9057 16H31.5277L36.5217 0.379999ZM40.3057 10.082L38.9197 4.582L37.4677 10.082H40.3057ZM59.8415 16V7.772L57.2235 13.558H54.9355L52.3175 7.772V16H48.0275V0.379999H52.7135L56.0795 7.728L59.4675 0.379999H64.1315V16H59.8415ZM67.2449 16V0.379999H73.9769C74.7396 0.379999 75.4436 0.533999 76.0889 0.842C76.7342 1.15 77.2916 1.568 77.7609 2.096C78.2302 2.60933 78.5896 3.18867 78.8389 3.834C79.1029 4.47933 79.2349 5.132 79.2349 5.792C79.2349 6.716 79.0149 7.58867 78.5749 8.41C78.1496 9.23133 77.5482 9.906 76.7709 10.434C76.0082 10.9473 75.1136 11.204 74.0869 11.204H71.5349V16H67.2449ZM71.5349 7.464H73.8009C73.9769 7.464 74.1456 7.41267 74.3069 7.31C74.4682 7.20733 74.6002 7.03133 74.7029 6.782C74.8202 6.53267 74.8789 6.20267 74.8789 5.792C74.8789 5.352 74.8129 5.01467 74.6809 4.78C74.5636 4.53067 74.4096 4.362 74.2189 4.274C74.0429 4.17133 73.8669 4.12 73.6909 4.12H71.5349V7.464ZM88.2119 16.132C86.9653 16.132 85.8946 15.9267 84.9999 15.516C84.1053 15.1053 83.3719 14.5407 82.7999 13.822C82.2426 13.1033 81.8319 12.282 81.5679 11.358C81.3039 10.4193 81.1719 9.43667 81.1719 8.41V0.379999H85.4619V8.41C85.4619 8.92333 85.5133 9.41467 85.6159 9.884C85.7186 10.3533 85.8799 10.7713 86.0999 11.138C86.3199 11.5047 86.5986 11.798 86.9359 12.018C87.2879 12.2233 87.7133 12.326 88.2119 12.326C88.7253 12.326 89.1579 12.2233 89.5099 12.018C89.8619 11.798 90.1406 11.5047 90.3459 11.138C90.5659 10.7567 90.7273 10.3313 90.8299 9.862C90.9326 9.39267 90.9839 8.90867 90.9839 8.41V0.379999H95.2739V8.41C95.2739 9.49533 95.1273 10.5073 94.8339 11.446C94.5553 12.3847 94.1299 13.206 93.5579 13.91C92.9859 14.614 92.2526 15.164 91.3579 15.56C90.4779 15.9413 89.4293 16.132 88.2119 16.132ZM107.642 5.484C107.642 5.484 107.517 5.41067 107.268 5.264C107.018 5.11733 106.688 4.956 106.278 4.78C105.867 4.58933 105.42 4.42067 104.936 4.274C104.452 4.12733 103.975 4.054 103.506 4.054C103.139 4.054 102.838 4.11267 102.604 4.23C102.369 4.34733 102.252 4.54533 102.252 4.824C102.252 5.088 102.369 5.30067 102.604 5.462C102.838 5.62333 103.168 5.77 103.594 5.902C104.034 6.034 104.554 6.19533 105.156 6.386C106.124 6.67933 106.96 7.01667 107.664 7.398C108.368 7.77933 108.91 8.27067 109.292 8.872C109.673 9.45867 109.864 10.2433 109.864 11.226C109.864 12.1647 109.695 12.9567 109.358 13.602C109.02 14.2327 108.566 14.7387 107.994 15.12C107.422 15.5013 106.784 15.78 106.08 15.956C105.376 16.1173 104.657 16.198 103.924 16.198C103.176 16.198 102.391 16.1247 101.57 15.978C100.763 15.8167 99.9782 15.604 99.2155 15.34C98.4529 15.0613 97.7562 14.7387 97.1255 14.372L98.9735 10.61C98.9735 10.61 99.1202 10.698 99.4135 10.874C99.7069 11.05 100.096 11.248 100.58 11.468C101.064 11.688 101.599 11.886 102.186 12.062C102.787 12.238 103.388 12.326 103.99 12.326C104.459 12.326 104.782 12.2673 104.958 12.15C105.148 12.018 105.244 11.8493 105.244 11.644C105.244 11.336 105.082 11.1013 104.76 10.94C104.437 10.764 104.012 10.6027 103.484 10.456C102.97 10.2947 102.398 10.1113 101.768 9.906C100.858 9.598 100.11 9.25333 99.5235 8.872C98.9369 8.476 98.5042 8.014 98.2255 7.486C97.9469 6.94333 97.8075 6.29067 97.8075 5.528C97.8075 4.36933 98.0789 3.40133 98.6215 2.624C99.1642 1.84667 99.8755 1.26 100.756 0.863999C101.65 0.453333 102.611 0.248 103.638 0.248C104.4 0.248 105.134 0.343333 105.838 0.534C106.556 0.709999 107.224 0.929999 107.84 1.194C108.47 1.458 109.02 1.70733 109.49 1.942L107.642 5.484Z" fill="#959595"/>
</svg>
