<?xml version="1.0" encoding="UTF-8"?>
<svg xmlns="http://www.w3.org/2000/svg" width="20" height="13" viewBox="0 0 20 13" fill="none">
  <g id="Group">
    <path id="Vector" d="M17.733 7.18079C18.0175 6.85859 18.2433 6.60007 18.41 6.40503C19.6109 5.00583 20.1315 4.112 19.9719 3.72231L19.9093 3.63105C19.8678 3.57623 19.7599 3.52589 19.5865 3.48032C19.4129 3.43479 19.1908 3.42751 18.9202 3.45757L15.9213 3.47611C15.8518 3.47005 15.7824 3.47147 15.7129 3.48032C15.6435 3.48957 15.5985 3.49886 15.5775 3.50771C15.5566 3.517 15.5393 3.52444 15.5255 3.5305L15.4839 3.55789C15.4492 3.57603 15.4111 3.60807 15.3695 3.65383C15.3278 3.69956 15.2929 3.75257 15.2653 3.81361C14.939 4.54966 14.5677 5.23415 14.1511 5.86686C13.8942 6.24407 13.6581 6.5713 13.4431 6.84773C13.2279 7.12478 13.0474 7.32852 12.9016 7.45906C12.7559 7.58984 12.6238 7.695 12.5059 7.77382C12.3878 7.8532 12.2976 7.88645 12.2353 7.87437C12.1727 7.86228 12.1137 7.8502 12.0583 7.83769C11.961 7.7831 11.8828 7.70873 11.824 7.61423C11.7649 7.52017 11.7251 7.40145 11.7042 7.25839C11.6835 7.11553 11.6711 6.99223 11.6678 6.88865C11.6642 6.78531 11.666 6.63942 11.6731 6.4506C11.68 6.26198 11.6835 6.13446 11.6835 6.06736C11.6835 5.83643 11.6888 5.58539 11.6992 5.31459C11.7095 5.04398 11.7183 4.82939 11.7251 4.67119C11.732 4.51322 11.7355 4.34576 11.7355 4.16926C11.7355 3.99315 11.7233 3.8545 11.6988 3.75399C11.6745 3.65383 11.6379 3.55651 11.5897 3.46202C11.5409 3.36792 11.4698 3.29476 11.376 3.2432C11.2823 3.19141 11.1661 3.15052 11.0273 3.11987C10.6591 3.04671 10.1905 3.00763 9.62146 3.00121C8.33017 2.98952 7.50059 3.06245 7.1327 3.22042C6.98693 3.28752 6.85494 3.37859 6.73701 3.49425C6.61194 3.62825 6.59469 3.70137 6.68505 3.71306C7.10167 3.76788 7.39648 3.89885 7.57005 4.10558L7.63261 4.21499C7.68111 4.29437 7.72965 4.43423 7.77838 4.6349C7.82692 4.83561 7.85818 5.05765 7.87219 5.30106C7.90691 5.74514 7.90691 6.12518 7.87219 6.44174C7.83748 6.75827 7.8046 7.00451 7.77335 7.18062C7.74205 7.35713 7.69516 7.49999 7.63283 7.60939C7.57028 7.7192 7.52869 7.7861 7.50776 7.81046C7.48684 7.83463 7.46959 7.84994 7.4558 7.85603C7.36545 7.88625 7.27186 7.90156 7.17463 7.90156C7.07736 7.90156 6.95939 7.85883 6.82053 7.77359C6.68163 7.68877 6.53747 7.5715 6.38847 7.42239C6.23902 7.2735 6.07093 7.06496 5.8833 6.79716C5.6959 6.52978 5.50136 6.21322 5.30018 5.84832L5.1337 5.58354C5.02956 5.41349 4.8872 5.16544 4.70672 4.84002C4.52623 4.5146 4.36641 4.19988 4.22777 3.89543C4.17213 3.76788 4.08888 3.67056 3.97786 3.60346L3.9259 3.57607C3.89118 3.55187 3.83554 3.52589 3.7592 3.49866C3.68263 3.47127 3.60309 3.45151 3.51961 3.43923L0.66642 3.45737C0.374875 3.45737 0.177143 3.51542 0.0729989 3.63105L0.0313711 3.68567C0.0103318 3.71629 0 3.76505 0 3.83175C0 3.89885 0.0209266 3.98087 0.0625544 4.07799C0.47917 4.93596 0.932154 5.76331 1.42143 6.56001C1.91097 7.35713 2.33611 7.99908 2.69709 8.4857C3.05806 8.97271 3.42595 9.43171 3.80098 9.8637C4.176 10.2957 4.42408 10.5723 4.54547 10.6939C4.66686 10.8158 4.76228 10.9071 4.83175 10.9677L5.09204 11.1869C5.25851 11.3328 5.50339 11.5077 5.82623 11.7116C6.14904 11.9155 6.50637 12.1162 6.89886 12.3137C7.29091 12.5116 7.74754 12.6725 8.26807 12.7975C8.78864 12.9224 9.29539 12.9725 9.78835 12.948H10.9859C11.2289 12.9298 11.4128 12.8632 11.5377 12.7473L11.5793 12.7017C11.6069 12.6654 11.6331 12.609 11.6574 12.5331C11.6816 12.4571 11.6941 12.3733 11.6941 12.2822C11.6869 12.0207 11.7097 11.7845 11.7616 11.575C11.8136 11.365 11.8727 11.207 11.9387 11.1003C12.0047 10.9941 12.0792 10.9042 12.1626 10.831C12.2459 10.7579 12.3047 10.7142 12.3397 10.6989C12.3744 10.6839 12.4023 10.6733 12.423 10.6668C12.5894 10.6182 12.7855 10.6654 13.0113 10.8083C13.2369 10.9515 13.4487 11.1276 13.6466 11.3376C13.8443 11.5475 14.0821 11.7831 14.3598 12.0448C14.6374 12.3063 14.8804 12.501 15.0887 12.6287L15.297 12.7386C15.4359 12.8113 15.6162 12.8782 15.8385 12.9393C16.0606 12.9999 16.2552 13.0152 16.4216 12.9848L19.0874 12.9481C19.3511 12.9481 19.556 12.9103 19.7018 12.8341C19.8475 12.7585 19.9343 12.6743 19.9621 12.5832C19.9897 12.492 19.9915 12.389 19.9674 12.2731C19.943 12.1577 19.9187 12.0771 19.8945 12.0315C19.8702 11.986 19.8476 11.9477 19.8267 11.9175C19.4795 11.37 18.8166 10.6976 17.8378 9.90071L17.8168 9.88257L17.8065 9.87332L17.7962 9.86443H17.7857C17.3413 9.49328 17.0603 9.24381 16.9423 9.11587C16.7271 8.87289 16.6784 8.62645 16.7966 8.37702C16.8793 8.18787 17.1916 7.78932 17.733 7.18079Z" fill="#85D040"></path>
  </g>
</svg>
