<?xml version="1.0" encoding="UTF-8"?>
<svg xmlns="http://www.w3.org/2000/svg" width="90" height="90" viewBox="0 0 90 90" fill="none">
  <g id="Frame">
    <g id="Group">
      <path id="Vector" d="M37.8813 58.2166V47.7891H10.5586V58.2166H37.8813ZM12.5385 49.769H35.9014V56.2367H12.5385V49.769Z" fill="#85D040"></path>
      <path id="Vector_2" d="M1.97991 64.5523H39.0042V62.5723H4.09181V43.4332H44.3499V45.6111H46.3299V43.4332H48.4418V37.2295H0V43.4332H2.1119V62.5723H0V68.7761H41.1161V66.7962H1.97991V64.5523ZM1.97991 39.2094H46.4618V41.4533H1.97991V39.2094ZM46.2063 23.9923L44.6006 18L1.88936 29.4443L3.49507 35.4365L46.2063 23.9923ZM43.2007 20.4247L43.7814 22.5921L4.89513 33.0117L4.31435 30.8443L43.2007 20.4247Z" fill="#85D040"></path>
      <path id="Vector_3" d="M63.7478 49.9896L62.3043 51.3449C64.3444 53.5175 65.468 56.3566 65.468 59.3387C65.468 65.7799 60.2277 71.0202 53.7865 71.0202C47.3453 71.0202 42.105 65.7799 42.105 59.3387C42.105 52.8976 47.3453 47.6573 53.7865 47.6573C56.3599 47.6573 58.8 48.4773 60.8434 50.0291L62.0407 48.4521C59.6501 46.637 56.7958 45.6775 53.7864 45.6775C46.2535 45.6775 40.125 51.806 40.125 59.3389C40.125 66.8717 46.2535 73.0002 53.7864 73.0002C61.3193 73.0002 67.4477 66.8717 67.4477 59.3389C67.4479 55.8511 66.1339 52.5309 63.7478 49.9896Z" fill="#85D040"></path>
      <path id="Vector_4" d="M53.7872 49.9009C48.5833 49.9009 44.3496 54.1346 44.3496 59.3384C44.3496 64.5423 48.5833 68.776 53.7872 68.776C58.991 68.776 63.2247 64.5423 63.2247 59.3384C63.2247 54.1346 58.991 49.9009 53.7872 49.9009ZM53.7872 66.7961C49.675 66.7961 46.3295 63.4506 46.3295 59.3384C46.3295 55.2263 49.675 51.8808 53.7872 51.8808C57.8993 51.8808 61.2448 55.2263 61.2448 59.3384C61.2448 63.4506 57.8993 66.7961 53.7872 66.7961Z" fill="#85D040"></path>
      <path id="Vector_5" d="M54.7777 54.0588H52.7978V59.7486L56.2557 63.2064L57.6556 61.8064L54.7777 58.9285V54.0588ZM23.1652 52.0129H25.2771V53.9928H23.1652V52.0129ZM27.389 52.0129H29.5009V53.9928H27.389V52.0129ZM18.9414 52.0129H21.0533V53.9928H18.9414V52.0129Z" fill="#85D040"></path>
    </g>
  </g>
</svg>
