<?xml version="1.0" encoding="UTF-8"?>
<svg xmlns="http://www.w3.org/2000/svg" width="90" height="90" viewBox="0 0 90 90" fill="none">
  <g id="Frame" clip-path="url(#clip0_118_13745)">
    <g id="Group">
      <path id="Vector" d="M88.9041 48.486L81.3501 35.0377C81.0433 34.4919 80.5953 34.0373 80.0523 33.721C79.5093 33.4047 78.8911 33.2381 78.2616 33.2384H67.9688V23.5179C67.9678 22.8517 67.7014 22.2129 67.2276 21.7411C66.7538 21.2694 66.1113 21.0029 65.4403 21H18.7396C18.0671 21.0005 17.4224 21.2659 16.9469 21.738C16.4714 22.2101 16.2041 22.8502 16.2036 23.5179V28.0936H10.1809C9.81077 28.0936 9.45584 28.2396 9.19414 28.4994C8.93245 28.7593 8.78543 29.1117 8.78543 29.4791C8.78543 29.8466 8.93245 30.199 9.19414 30.4588C9.45584 30.7186 9.81077 30.8646 10.1809 30.8646H27.2164C27.5865 30.8646 27.9414 30.7186 28.2031 30.4588C28.4648 30.199 28.6118 29.8466 28.6118 29.4791C28.6118 29.1117 28.4648 28.7593 28.2031 28.4994C27.9414 28.2396 27.5865 28.0936 27.2164 28.0936H18.987V23.771H65.1779V60.0187H44.7245C44.4031 58.2755 43.4763 56.6994 42.1052 55.5646C40.7341 54.4299 39.0057 53.8084 37.2208 53.8084C35.4358 53.8084 33.7074 54.4299 32.3363 55.5646C30.9653 56.6994 30.0384 58.2755 29.717 60.0187H18.987V52.648H23.1064C23.4764 52.648 23.8314 52.502 24.0931 52.2422C24.3548 51.9824 24.5018 51.63 24.5018 51.2625C24.5018 50.8951 24.3548 50.5427 24.0931 50.2828C23.8314 50.023 23.4764 49.877 23.1064 49.877H5.39544C5.02535 49.877 4.67041 50.023 4.40871 50.2828C4.14702 50.5427 4 50.8951 4 51.2625C4 51.63 4.14702 51.9824 4.40871 52.2422C4.67041 52.502 5.02535 52.648 5.39544 52.648H16.1961V61.4042C16.1961 61.7717 16.3432 62.1241 16.6049 62.3839C16.8665 62.6437 17.2215 62.7897 17.5916 62.7897H29.717C30.0384 64.5329 30.9653 66.1091 32.3363 67.2438C33.7074 68.3786 35.4358 69 37.2208 69C39.0057 69 40.7341 68.3786 42.1052 67.2438C43.4763 66.1091 44.4031 64.5329 44.7245 62.7897H70.0285C70.3498 64.5329 71.2767 66.1091 72.6478 67.2438C74.0188 68.3786 75.7473 69 77.5322 69C79.3172 69 81.0456 68.3786 82.4166 67.2438C83.7877 66.1091 84.7146 64.5329 85.036 62.7897H87.598C88.2342 62.7902 88.8446 62.5398 89.295 62.0937C89.7455 61.6475 89.999 61.0421 90 60.4104V52.672C89.9993 51.2069 89.6221 49.7661 88.9041 48.486ZM37.2208 66.2201C36.2593 66.2212 35.3192 65.9392 34.5193 65.4097C33.7193 64.8801 33.0956 64.1269 32.7269 63.2453C32.3582 62.3638 32.2611 61.3934 32.448 60.457C32.6349 59.5207 33.0973 58.6604 33.7768 57.9851C34.4562 57.3097 35.3221 56.8496 36.265 56.663C37.2079 56.4763 38.1853 56.5716 39.0737 56.9366C39.962 57.3016 40.7214 57.9201 41.2556 58.7137C41.7899 59.5073 42.075 60.4404 42.075 61.395C42.076 62.0289 41.9512 62.6568 41.7078 63.2428C41.4644 63.8288 41.1071 64.3614 40.6563 64.8104C40.2056 65.2593 39.6702 65.6157 39.0807 65.8591C38.4912 66.1026 37.8592 66.2284 37.2208 66.2294V66.2201ZM77.5378 66.2201C76.5764 66.2212 75.6362 65.9392 74.8363 65.4097C74.0364 64.8801 73.4126 64.1269 73.0439 63.2453C72.6752 62.3638 72.5782 61.3934 72.7651 60.457C72.952 59.5207 73.4144 58.6604 74.0938 57.9851C74.7732 57.3097 75.6392 56.8496 76.582 56.663C77.5249 56.4763 78.5024 56.5716 79.3907 56.9366C80.2791 57.3016 81.0384 57.9201 81.5726 58.7137C82.1069 59.5073 82.3921 60.4404 82.3921 61.395C82.393 62.0292 82.2681 62.6574 82.0245 63.2436C81.7808 63.8299 81.4232 64.3627 80.972 64.8117C80.5209 65.2606 79.9851 65.6169 79.3951 65.8602C78.8052 66.1034 78.1728 66.2289 77.5341 66.2294L77.5378 66.2201ZM87.2128 60.0095H85.0415C84.7202 58.2663 83.7933 56.6901 82.4222 55.5554C81.0512 54.4207 79.3227 53.7992 77.5378 53.7992C75.7529 53.7992 74.0244 54.4207 72.6534 55.5554C71.2823 56.6901 70.3554 58.2663 70.034 60.0095H67.9688V35.9946H78.2616C78.3943 35.9943 78.5246 36.0293 78.6391 36.0959C78.7536 36.1625 78.8481 36.2582 78.9128 36.3733L86.4668 49.8198C86.9539 50.6873 87.2101 51.664 87.211 52.6572L87.2128 60.0095Z" fill="#85D040"></path>
      <path id="Vector_2" d="M78.0777 39.4604C77.8389 39.0211 77.4902 38.6551 77.0677 38.4002C76.6453 38.1453 76.1642 38.0107 75.6742 38.0102H71.9686C71.7178 38.0107 71.4696 38.062 71.2382 38.1611C71.0067 38.2602 70.7966 38.4052 70.6198 38.5878C70.443 38.7703 70.303 38.9869 70.2079 39.2251C70.1127 39.4633 70.0642 39.7184 70.0652 39.9758V49.0152C70.0672 49.5317 70.2672 50.0266 70.6221 50.3927C70.9769 50.7588 71.458 50.9666 71.9611 50.9712L81.0939 51C81.426 50.9998 81.7524 50.9106 82.0406 50.7412C82.3288 50.5717 82.5689 50.3279 82.7372 50.034C82.9054 49.74 82.996 49.406 82.9999 49.0651C83.0038 48.7241 82.9209 48.388 82.7594 48.0901L78.0777 39.4604ZM72.8753 48.0959V40.8951L75.6273 40.8721L79.5615 48.1074L72.8753 48.0959ZM17.0161 32C16.6435 32 16.2861 32.152 16.0226 32.4225C15.7591 32.693 15.6111 33.0599 15.6111 33.4425V42.7472H11.8942C11.5216 42.7472 11.1642 42.8992 10.9007 43.1697C10.6372 43.4402 10.4892 43.8071 10.4892 44.1897C10.4892 44.5723 10.6372 44.9392 10.9007 45.2097C11.1642 45.4802 11.5216 45.6321 11.8942 45.6321H15.6111V47.215C15.6111 47.5976 15.7591 47.9645 16.0226 48.235C16.2861 48.5055 16.6435 48.6575 17.0161 48.6575C17.3887 48.6575 17.7461 48.5055 18.0096 48.235C18.2731 47.9645 18.4212 47.5976 18.4212 47.215V45.6321H36.7805C37.1531 45.6321 37.5105 45.4802 37.774 45.2097C38.0375 44.9392 38.1855 44.5723 38.1855 44.1897C38.1855 43.8071 38.0375 43.4402 37.774 43.1697C37.5105 42.8992 37.1531 42.7472 36.7805 42.7472H18.4212V33.4425C18.4212 33.0599 18.2731 32.693 18.0096 32.4225C17.7461 32.152 17.3887 32 17.0161 32ZM13.3011 36.6293C13.3011 36.2468 13.1531 35.8799 12.8896 35.6093C12.6261 35.3388 12.2687 35.1869 11.8961 35.1869H1.40505C1.03241 35.1869 0.675028 35.3388 0.41153 35.6093C0.148032 35.8799 0 36.2468 0 36.6293C0 37.0119 0.148032 37.3788 0.41153 37.6493C0.675028 37.9198 1.03241 38.0718 1.40505 38.0718H11.8961C12.2687 38.0718 12.6261 37.9198 12.8896 37.6493C13.1531 37.3788 13.3011 37.0119 13.3011 36.6293Z" fill="#85D040"></path>
      <path id="Vector_3" d="M37 64C38.1046 64 39 62.8807 39 61.5C39 60.1193 38.1046 59 37 59C35.8954 59 35 60.1193 35 61.5C35 62.8807 35.8954 64 37 64Z" fill="#85D040"></path>
      <path id="Vector_4" d="M77.5 64C78.8807 64 80 62.8807 80 61.5C80 60.1193 78.8807 59 77.5 59C76.1193 59 75 60.1193 75 61.5C75 62.8807 76.1193 64 77.5 64Z" fill="#85D040"></path>
    </g>
  </g>
  <defs>
    <clipPath id="clip0_118_13745">
      <rect width="90" height="90" fill="white"></rect>
    </clipPath>
  </defs>
</svg>
