<?xml version="1.0" encoding="UTF-8"?>
<svg xmlns="http://www.w3.org/2000/svg" width="90" height="90" viewBox="0 0 90 90" fill="none">
  <g id="Frame">
    <g id="Group">
      <path id="Vector" d="M55.585 41.6226C55.7101 41.6226 55.8339 41.598 55.9494 41.5502C56.0649 41.5023 56.1699 41.4322 56.2583 41.3438C56.3467 41.2554 56.4168 41.1504 56.4646 41.0349C56.5125 40.9194 56.5371 40.7956 56.5371 40.6706V29.7232C56.5371 29.3829 56.3555 29.0688 56.061 28.8987L28.7444 13.1276C28.5996 13.044 28.4355 13 28.2683 13C28.1012 13 27.937 13.044 27.7923 13.1276L0.476074 28.8987C0.331352 28.9823 0.211168 29.1025 0.127601 29.2472C0.044034 29.3919 2.6528e-05 29.556 0 29.7232V61.2653C0 61.6055 0.181543 61.9196 0.476074 62.0897C29.7576 78.9956 27.8784 77.9886 28.2683 77.9886C28.6458 77.9886 26.8298 78.9664 56.0609 62.0899C56.2056 62.0063 56.3258 61.8861 56.4093 61.7414C56.4929 61.5967 56.5369 61.4325 56.5369 61.2654V44.225C56.5329 43.9752 56.4308 43.737 56.2527 43.5618C56.0746 43.3866 55.8348 43.2884 55.5849 43.2884C55.3351 43.2884 55.0953 43.3866 54.9172 43.5618C54.7391 43.737 54.637 43.9752 54.6329 44.225V60.7159L29.2204 75.3874V46.0439L54.6329 31.372V40.6706C54.6329 40.9231 54.7333 41.1652 54.9118 41.3438C55.0904 41.5223 55.3325 41.6226 55.585 41.6226ZM28.2683 15.0513L34.8786 18.8678L9.46626 33.5395L2.85619 29.723L28.2683 15.0513ZM10.4013 36.2835L16.4836 39.7951V50.8366L10.4013 47.325V36.2835ZM16.4836 69.1332L10.4013 65.6216V62.3634L16.4836 65.8751V69.1332ZM27.3163 75.3874L18.3876 70.2326V65.3254C18.3876 64.9852 18.2061 64.6711 17.9116 64.501L9.92507 59.89C9.29094 59.5238 8.49697 59.9832 8.49697 60.7145V64.5223L1.90392 60.7157V31.372L8.49697 35.1786V47.8745C8.49697 48.2148 8.67852 48.5289 8.97305 48.699C17.6588 53.7136 17.0757 53.4375 17.4355 53.4375C17.688 53.4374 17.93 53.3371 18.1086 53.1585C18.2871 52.98 18.3874 52.7379 18.3875 52.4855V40.8888L27.3161 46.0437V75.3874H27.3163ZM28.2683 44.3949L19.34 39.2402L34.8643 30.2906C35.0794 30.1627 35.2355 29.9552 35.2988 29.7131C35.3621 29.4709 35.3275 29.2135 35.2025 28.9967C35.0775 28.7798 34.8721 28.6209 34.6309 28.5544C34.3896 28.4878 34.1318 28.5189 33.9133 28.641L17.4355 38.1403L11.3704 34.6387L36.7826 19.9668L42.8476 23.4684L36.8256 26.9453C36.6109 27.0736 36.4553 27.2811 36.3924 27.5231C36.3295 27.7651 36.3644 28.0222 36.4894 28.2387C36.6144 28.4552 36.8196 28.6139 37.0606 28.6805C37.3016 28.747 37.5592 28.716 37.7776 28.5943L44.7516 24.5678L53.681 29.723L28.2683 44.3949Z" fill="#85D040"></path>
      <path id="Vector_2" d="M49.3835 40.0766C49.321 39.9683 49.2378 39.8734 49.1386 39.7973C49.0394 39.7212 48.9262 39.6654 48.8054 39.633C48.6847 39.6007 48.5587 39.5924 48.4347 39.6087C48.3108 39.625 48.1913 39.6656 48.083 39.7281L35.2548 47.1345C35.0401 47.2627 34.8845 47.4703 34.8216 47.7123C34.7587 47.9543 34.7936 48.2113 34.9186 48.4279C35.0436 48.6444 35.2488 48.8031 35.4898 48.8696C35.7308 48.9362 35.9884 48.9052 36.2068 48.7835L49.035 41.3771C49.1433 41.3146 49.2382 41.2314 49.3143 41.1322C49.3904 41.033 49.4462 40.9198 49.4786 40.7991C49.511 40.6783 49.5192 40.5523 49.5029 40.4284C49.4866 40.3044 49.446 40.1849 49.3835 40.0766ZM49.3835 44.3415C49.2572 44.1228 49.0493 43.9633 48.8054 43.8979C48.5615 43.8326 48.3017 43.8668 48.083 43.993L35.2548 51.3994C35.0401 51.5277 34.8845 51.7353 34.8216 51.9773C34.7587 52.2193 34.7936 52.4763 34.9186 52.6929C35.0436 52.9094 35.2488 53.0681 35.4898 53.1346C35.7308 53.2011 35.9884 53.1702 36.2068 53.0484L49.035 45.642C49.1433 45.5795 49.2382 45.4963 49.3143 45.3971C49.3904 45.2979 49.4462 45.1847 49.4786 45.0639C49.511 44.9432 49.5192 44.8172 49.5029 44.6932C49.4866 44.5693 49.446 44.4498 49.3835 44.3415Z" fill="#85D040"></path>
    </g>
  </g>
</svg>
