<?xml version="1.0" encoding="UTF-8"?>
<svg xmlns="http://www.w3.org/2000/svg" width="90" height="90" viewBox="0 0 90 90" fill="none">
  <g id="Frame">
    <g id="Group">
      <path id="Vector" d="M1.04838 69.6171H2.64193C2.75096 69.9274 2.87782 70.2304 3.0183 70.5271L1.89129 71.6541C1.69474 71.8507 1.58433 72.1173 1.58433 72.3953C1.58433 72.6733 1.69474 72.9399 1.89129 73.1366L4.86241 76.1077C5.06283 76.2969 5.32801 76.4022 5.60362 76.4022C5.87922 76.4022 6.1444 76.2969 6.34482 76.1077L7.47289 74.9796C7.76958 75.1211 8.07256 75.2459 8.38183 75.3549V76.9516C8.38183 77.2297 8.49229 77.4963 8.6889 77.6929C8.88551 77.8896 9.15217 78 9.43022 78H13.6321C13.9102 78 14.1769 77.8896 14.3735 77.6929C14.5701 77.4963 14.6805 77.2297 14.6805 76.9516V75.3528C14.9888 75.2438 15.2917 75.118 15.5863 74.9775L16.7175 76.1087C16.9141 76.3053 17.1808 76.4157 17.4587 76.4157C17.7367 76.4157 18.0034 76.3053 18.2 76.1087L21.1711 73.1376C21.3676 72.941 21.478 72.6744 21.478 72.3964C21.478 72.1184 21.3676 71.8518 21.1711 71.6552L20.0388 70.5229C20.1793 70.2281 20.3043 69.9261 20.4131 69.6182H22.0161C22.2941 69.6182 22.5608 69.5077 22.7574 69.3111C22.954 69.1145 23.0645 68.8478 23.0645 68.5698V64.3679C23.0645 64.0898 22.954 63.8232 22.7574 63.6265C22.5608 63.4299 22.2941 63.3195 22.0161 63.3195H20.4141C20.3053 63.0116 20.1804 62.7095 20.0399 62.4147L21.1721 61.2825C21.3687 61.0859 21.4791 60.8193 21.4791 60.5413C21.4791 60.2633 21.3687 59.9967 21.1721 59.8001L18.201 56.8289C18.0006 56.6398 17.7354 56.5344 17.4598 56.5344C17.1842 56.5344 16.919 56.6398 16.7186 56.8289L15.5874 57.9601C15.292 57.8197 14.9897 57.6945 14.6816 57.5848V55.9839C14.6816 55.7059 14.5711 55.4392 14.3745 55.2426C14.1779 55.046 13.9112 54.9355 13.6332 54.9355H9.43127C9.15322 54.9355 8.88656 55.046 8.68995 55.2426C8.49334 55.4392 8.38288 55.7059 8.38288 55.9839V57.5796C8.07364 57.6889 7.77025 57.8142 7.47393 57.9549L6.34587 56.8268C6.14927 56.6303 5.88266 56.5199 5.60466 56.5199C5.32667 56.5199 5.06006 56.6303 4.86346 56.8268L1.89233 59.798C1.69579 59.9946 1.58538 60.2612 1.58538 60.5392C1.58538 60.8172 1.69579 61.0838 1.89233 61.2804L3.01935 62.4074C2.87798 62.7044 2.752 63.0085 2.64193 63.3184H1.04838C0.770336 63.3184 0.503675 63.4289 0.307065 63.6255C0.110454 63.8221 0 64.0888 0 64.3668V68.5687C0 68.8468 0.110454 69.1134 0.307065 69.3101C0.503675 69.5067 0.770336 69.6171 1.04838 69.6171ZM2.09677 65.4152H3.41669C3.64906 65.4151 3.87484 65.3379 4.05853 65.1956C4.24223 65.0532 4.37343 64.8539 4.43152 64.6289C4.60183 63.9686 4.86404 63.3355 5.21047 62.7481C5.32856 62.5479 5.37678 62.3142 5.34756 62.0836C5.31833 61.853 5.21332 61.6387 5.04902 61.4743L4.11491 60.5402L5.60362 59.0515L6.53773 59.9867C6.70212 60.151 6.91644 60.256 7.14701 60.2852C7.37758 60.3144 7.61133 60.2662 7.81151 60.1481C8.3986 59.8024 9.03137 59.5408 9.69127 59.3713C9.91627 59.3132 10.1156 59.182 10.2579 58.9983C10.4002 58.8146 10.4775 58.5888 10.4776 58.3564V57.0323H12.5827V58.3575C12.5827 58.5897 12.6598 58.8154 12.8019 58.9991C12.9441 59.1827 13.1431 59.314 13.368 59.3723C14.0274 59.5432 14.6598 59.8054 15.2467 60.1513C15.6576 60.3934 16.1839 60.3274 16.5204 59.9898L17.4577 59.0515L18.9464 60.5402L18.0071 61.4796C17.8428 61.644 17.7377 61.8583 17.7085 62.0888C17.6793 62.3194 17.7275 62.5532 17.8456 62.7534C18.1895 63.3373 18.4505 63.9684 18.6214 64.631C18.6795 64.856 18.8107 65.0553 18.9944 65.1977C19.1781 65.34 19.4039 65.4172 19.6362 65.4173H20.9677V67.5225H19.6394C19.407 67.5225 19.1812 67.5998 18.9975 67.7421C18.8138 67.8844 18.6826 68.0837 18.6246 68.3087C18.4543 68.9676 18.1932 69.5995 17.8487 70.1864C17.7307 70.3866 17.6824 70.6203 17.7117 70.8509C17.7409 71.0815 17.8459 71.2958 18.0102 71.4602L18.9485 72.3985L17.4598 73.8872L16.5225 72.9468C16.3582 72.7825 16.1438 72.6775 15.9133 72.6483C15.6827 72.619 15.4489 72.6673 15.2488 72.7853C14.662 73.1314 14.0296 73.3936 13.37 73.5643C13.1452 73.6226 12.9462 73.7539 12.804 73.9375C12.6619 74.1212 12.5848 74.3469 12.5848 74.5791V75.9032H10.4797V74.5802C10.4796 74.3478 10.4023 74.122 10.26 73.9383C10.1177 73.7546 9.91836 73.6234 9.69336 73.5653C9.03356 73.3955 8.40082 73.134 7.81361 72.7885C7.61332 72.6708 7.37966 72.6227 7.14918 72.652C6.9187 72.6812 6.7044 72.786 6.53982 72.9499L5.60571 73.8841L4.11701 72.3953L5.05007 71.4623C5.21469 71.2981 5.31992 71.0837 5.34916 70.8531C5.37839 70.6224 5.32997 70.3886 5.21152 70.1885C4.86526 69.601 4.60306 68.9679 4.43257 68.3077C4.37448 68.0827 4.24327 67.8834 4.05958 67.741C3.87589 67.5987 3.65011 67.5215 3.41773 67.5214H2.09677V65.4152Z" fill="#85D040"></path>
      <path id="Vector_2" d="M11.5327 71.7097C14.4231 71.7097 16.7746 69.3582 16.7746 66.4678C16.7746 63.5774 14.4231 61.2258 11.5327 61.2258C8.64228 61.2258 6.29075 63.5774 6.29075 66.4678C6.29075 69.3582 8.64228 71.7097 11.5327 71.7097ZM11.5327 63.3226C13.2667 63.3226 14.6778 64.7337 14.6778 66.4678C14.6778 68.2018 13.2667 69.6129 11.5327 69.6129C9.79865 69.6129 8.38752 68.2018 8.38752 66.4678C8.38752 64.7337 9.79865 63.3226 11.5327 63.3226ZM64.9458 18.521C64.8846 18.3382 64.7742 18.1759 64.6268 18.0518C64.4794 17.9277 64.3007 17.8466 64.1102 17.8175L60.3172 17.2388L58.6114 13.604C58.527 13.4236 58.3929 13.2709 58.2248 13.164C58.0567 13.057 57.8617 13.0001 57.6624 13C57.4632 12.9999 57.2681 13.0565 57.0999 13.1633C56.9317 13.2701 56.7974 13.4226 56.7128 13.603L55.0071 17.2377L51.214 17.8164C51.0235 17.8455 50.8446 17.9265 50.6971 18.0506C50.5496 18.1747 50.4391 18.3371 50.3779 18.5199C50.3167 18.7027 50.307 18.8988 50.3501 19.0868C50.3931 19.2747 50.4871 19.4471 50.6217 19.5851L53.3968 22.4293L52.7405 26.4593C52.7086 26.6536 52.732 26.853 52.8082 27.0346C52.8843 27.2162 53.01 27.3726 53.1709 27.4861C53.3319 27.5995 53.5215 27.6654 53.7181 27.6761C53.9147 27.6867 54.1104 27.6418 54.2826 27.5465L57.6616 25.6783L61.0416 27.5465C61.2141 27.641 61.4095 27.6854 61.6059 27.6746C61.8023 27.6639 61.9917 27.5984 62.1529 27.4857C62.3138 27.3723 62.4396 27.2159 62.5158 27.0344C62.592 26.8529 62.6155 26.6536 62.5838 26.4593L61.9275 22.4293L64.7025 19.5851C64.8372 19.4473 64.9312 19.2751 64.9741 19.0873C65.017 18.8995 65.0072 18.7035 64.9458 18.521ZM60.0561 21.3453C59.9415 21.4627 59.8561 21.6053 59.8068 21.7617C59.7574 21.9182 59.7455 22.084 59.772 22.2459L60.1662 24.6666L58.168 23.5626C58.0126 23.4767 57.838 23.4317 57.6605 23.4317C57.483 23.4317 57.3085 23.4767 57.1531 23.5626L55.1549 24.6666L55.5491 22.2459C55.5756 22.084 55.5636 21.9182 55.5143 21.7617C55.465 21.6053 55.3796 21.4627 55.265 21.3453L53.5446 19.5819L55.8741 19.2265C56.0443 19.2004 56.2054 19.1329 56.3433 19.0297C56.4812 18.9266 56.5915 18.7911 56.6646 18.6352L57.6616 16.5164L58.6565 18.6352C58.8054 18.9518 59.1021 19.173 59.447 19.2265L61.7765 19.5819L60.0561 21.3453ZM48.6214 25.6605C48.3378 25.6171 48.0484 25.6321 47.7708 25.7043C47.4932 25.7766 47.2333 25.9047 47.0069 26.0809L38.7812 32.5158C39.2331 31.6467 39.4417 30.6707 39.3578 29.6705C39.2404 28.2751 38.5862 27.0097 37.5158 26.106C36.4454 25.2023 35.0899 24.7714 33.6934 24.8878C33.0071 24.9442 32.3387 25.136 31.7269 25.4522C31.1151 25.7683 30.572 26.2026 30.1289 26.7298C29.2983 27.7044 28.8574 28.9517 28.8911 30.2318C28.9248 31.5119 29.4306 32.7343 30.3113 33.6638C29.0891 33.9614 28.0163 34.6923 27.292 35.7208L19.0318 46.9951C18.8009 47.3208 18.6689 47.7061 18.6514 48.105C18.6339 48.5038 18.7318 48.8992 18.9332 49.2439C19.1307 49.5905 19.4237 49.8731 19.7772 50.058C20.1307 50.243 20.5299 50.3224 20.9272 50.287L23.4392 50.0742C23.7364 50.0502 24.025 49.9625 24.2853 49.8171C24.5456 49.6716 24.7716 49.4718 24.9478 49.2313L29.935 42.6705L30.3124 47.1471L27.8351 64.1393C26.8999 64.3312 25.9605 64.5031 25.0159 64.6352L25.3064 66.711C28.5982 66.2505 31.8325 65.4448 34.9557 64.307C40.9944 62.1054 45.8211 58.9362 49.5429 55.7543L49.7777 55.6841L49.7452 55.5751C53.336 52.4697 55.8814 49.3697 57.4655 47.1586C57.5653 47.0197 57.6294 46.8584 57.6524 46.6889C57.6754 46.5194 57.6566 46.3469 57.5975 46.1864C57.5385 46.0259 57.441 45.8823 57.3137 45.7681C57.1863 45.654 57.0329 45.5727 56.8669 45.5315L55.2503 45.1269L61.137 41.8569L62.5271 48.1137L61.1391 47.6514C60.9201 47.5783 60.6831 47.5797 60.4649 47.6551C60.2467 47.7306 60.0595 47.8759 59.9324 48.0686L59.7584 48.3307C46.5791 68.3958 31.929 73.2603 21.9589 73.8075L22.0731 75.9011C32.4553 75.3308 47.6474 70.3437 61.2376 49.8939L63.6185 50.6875C63.7944 50.7464 63.9829 50.7574 64.1645 50.7196C64.3461 50.6817 64.5144 50.5963 64.6522 50.4721C64.79 50.3479 64.8923 50.1893 64.9487 50.0125C65.005 49.8357 65.0134 49.6472 64.973 49.4661L62.8763 40.0307C62.8414 39.871 62.7697 39.7218 62.6667 39.5949C62.5638 39.468 62.4325 39.367 62.2835 39.3C62.1344 39.233 61.9718 39.2019 61.8085 39.2092C61.6453 39.2165 61.486 39.2619 61.3435 39.3419L51.9081 44.5838C51.7238 44.6857 51.5746 44.8408 51.4798 45.0288C51.3851 45.2167 51.3491 45.4289 51.3768 45.6376C51.4044 45.8463 51.4942 46.0419 51.6347 46.1987C51.7751 46.3556 51.9595 46.4665 52.1639 46.517L54.832 47.1838C53.1036 49.4098 51.1799 51.4771 49.0837 53.3609L47.2144 47.0905C47.1294 46.8264 46.9927 46.5817 46.8124 46.3708C46.632 46.1599 46.4117 45.9869 46.164 45.8618L41.8541 43.6172L41.1799 38.4927L50.7789 31.1791C51.2065 30.8541 51.4928 30.3773 51.5789 29.8472C51.6649 29.3171 51.5441 28.7742 51.2413 28.3307L50.0294 26.5505C49.8679 26.3139 49.6596 26.1128 49.4175 25.9598C49.1753 25.8067 48.9044 25.7048 48.6214 25.6605ZM33.8696 26.9783C34.2812 26.9421 34.696 26.9881 35.0898 27.1136C35.4836 27.239 35.8485 27.4414 36.1634 27.709C36.4798 27.9748 36.7403 28.3007 36.9299 28.6678C37.1196 29.0349 37.2346 29.4359 37.2684 29.8477C37.3387 30.6854 37.0797 31.5 36.5377 32.1416C35.9957 32.7832 35.2366 33.1763 34.399 33.2466C33.5603 33.3189 32.7467 33.0579 32.1051 32.5158C31.4635 31.9738 31.0704 31.2148 31.0001 30.3771C30.931 29.5461 31.1943 28.7217 31.7322 28.0845C32.2701 27.4473 33.0387 27.0495 33.8696 26.9783ZM35.2943 61.9251L37.476 49.3351L41.3299 51.2054L43.608 57.6005C40.9951 59.328 38.2087 60.7774 35.2943 61.9251ZM39.4281 37.1937C39.1293 37.4212 38.9752 37.7913 39.0234 38.1645L39.8474 44.4328C39.8925 44.7715 40.0991 45.0681 40.4031 45.2254L45.2131 47.7122L47.3434 54.859C46.7238 55.3643 46.0707 55.8655 45.3913 56.3624L43.2924 50.4705C43.1013 49.9839 42.7347 49.5866 42.265 49.3571L37.1416 46.8431C36.9952 46.7718 36.8343 46.7354 36.6716 46.7366C36.5088 46.7379 36.3485 46.7768 36.2033 46.8504C36.0581 46.9242 35.9321 47.0308 35.8355 47.1619C35.7388 47.2929 35.6741 47.4447 35.6466 47.6052L33.0235 62.746C32.0359 63.0742 31.0379 63.3761 30.0283 63.6361L32.406 47.3327C32.4175 47.253 32.4196 47.1733 32.4133 47.0926L31.7958 39.7801C31.7784 39.5688 31.6972 39.3677 31.5631 39.2035C31.4289 39.0393 31.2481 38.9197 31.0445 38.8605C30.8408 38.8013 30.6241 38.8053 30.4228 38.872C30.2215 38.9387 30.0452 39.0649 29.9171 39.2339L23.2641 47.9869L20.7385 48.2175L28.9988 36.9432C29.263 36.5652 29.6071 36.2499 30.0068 36.0198C30.4065 35.7897 30.8519 35.6504 31.3115 35.6117L34.5751 35.336H34.5783L38.7561 34.9827C38.9595 34.9649 39.1534 34.8894 39.3138 34.7636L48.3006 27.7331L49.5135 29.5133L39.4281 37.1937ZM3.1456 14.0485H5.24237V16.1453H3.1456V14.0485ZM5.24237 16.1453H7.33914V18.2421H5.24237V16.1453ZM1.04883 16.1453H3.1456V18.2421H1.04883V16.1453ZM3.1456 18.2421H5.24237V20.3389H3.1456V18.2421ZM11.5327 17.1937H13.6294V19.2905H11.5327V17.1937ZM13.6294 19.2905H15.7262V21.3872H13.6294V19.2905ZM9.4359 19.2905H11.5327V21.3872H9.4359V19.2905ZM11.5327 21.3872H13.6294V23.484H11.5327V21.3872ZM59.7584 70.6613H61.8551V72.7581H59.7584V70.6613ZM61.8551 72.7581H63.9519V74.8548H61.8551V72.7581ZM57.6616 72.7581H59.7584V74.8548H57.6616V72.7581ZM59.7584 74.8548H61.8551V76.9516H59.7584V74.8548Z" fill="#85D040"></path>
    </g>
  </g>
</svg>
