<?xml version="1.0" encoding="UTF-8"?>
<svg xmlns="http://www.w3.org/2000/svg" width="16" height="16" viewBox="0 0 16 16" fill="none">
  <g id="Group">
    <g id="Group 6">
      <path id="Exclude" fill-rule="evenodd" clip-rule="evenodd" d="M0.00212997 8.00118C0.00119302 3.5832 3.58005 0.000941284 7.99573 3.84789e-06C9.49262 -0.0014648 10.9599 0.417507 12.2304 1.20927C15.9786 3.54486 17.1247 8.4783 14.7903 12.2285C12.4559 15.9786 7.52503 17.1253 3.77687 14.7897L0.445493 15.9796C0.409608 15.9926 0.371724 15.9991 0.333559 15.9989C0.292427 15.999 0.25167 15.9914 0.213287 15.9766C0.0416379 15.9103 -0.0438117 15.7174 0.0224305 15.5456L1.26635 12.3165C0.441215 11.0286 0.00244228 9.53098 0.00212997 8.00118ZM10.4803 8.70034C10.9913 8.96698 11.8075 9.36696 11.8075 9.36696C11.9214 9.42311 11.9935 9.5392 11.9934 9.66631V10.3329C11.8258 11.3037 10.9792 12.0096 9.99462 11.9995C8.94792 11.9995 6.93845 10.7475 6.09426 9.90226C5.25007 9.05701 3.99816 7.04645 3.99816 5.99987C3.98804 5.01475 4.69353 4.16768 5.66383 4H6.33009C6.4558 4.00013 6.5707 4.07103 6.62726 4.18333C6.62726 4.18399 7.03033 4.99993 7.29352 5.5119C7.59 6.09052 7.03368 6.76982 6.71652 7.09045C6.90766 7.58851 7.19624 8.04336 7.56536 8.42836C7.95023 8.79762 8.40484 9.08635 8.90257 9.27765C9.22238 8.96033 9.90198 8.40236 10.4803 8.70034Z" fill="#85D040"></path>
    </g>
  </g>
</svg>
