<?xml version="1.0" encoding="UTF-8"?>
<svg xmlns="http://www.w3.org/2000/svg" width="74" height="74" viewBox="0 0 74 74" fill="none">
  <g id="Frame">
    <g id="Group">
      <path id="Vector" d="M39.3125 17.3438C39.9511 17.3438 40.4688 16.8261 40.4688 16.1875C40.4688 15.5489 39.9511 15.0312 39.3125 15.0312C38.6739 15.0312 38.1562 15.5489 38.1562 16.1875C38.1562 16.8261 38.6739 17.3438 39.3125 17.3438Z" fill="white"></path>
      <path id="Vector_2" d="M51.1352 43.9671L51.1019 43.9599C47.9044 43.3741 44.6706 43.0071 41.4231 42.8615C42.1463 42.1747 42.736 41.3599 43.1622 40.4582C43.2094 40.462 43.2565 40.466 43.304 40.4682C43.3215 40.4682 43.339 40.4693 43.3565 40.4693H56.6562C61.3472 40.4693 65.2398 38.9351 67.9131 36.0322C70.3824 33.3507 71.6875 29.6867 71.6875 25.4375C71.6875 25.4053 71.6865 25.3733 71.6862 25.3411H71.6875L71.6862 25.3394C71.656 21.3714 70.0597 17.576 67.2448 14.7793C64.4299 11.9825 60.6243 10.4108 56.6562 10.4062H31.2188C30.2991 10.4052 29.4174 10.0394 28.7671 9.38914C28.1168 8.73884 27.751 7.85715 27.75 6.9375V4.625C27.75 4.31834 27.6282 4.02425 27.4113 3.80741C27.1945 3.59057 26.9004 3.46875 26.5938 3.46875C26.2871 3.46875 25.993 3.59057 25.7762 3.80741C25.5593 4.02425 25.4375 4.31834 25.4375 4.625V6.9375C25.4393 8.27601 25.9048 9.57257 26.7547 10.6066C27.6047 11.6406 28.7866 12.3482 30.0995 12.6091C30.1357 13.1355 30.1996 13.6596 30.291 14.1792C29.5362 14.4984 28.7078 14.6022 27.8976 14.4791C27.5124 14.421 27.1465 14.2722 26.8301 14.045C26.5137 13.8177 26.2559 13.5186 26.0778 13.1721L25.3712 11.1766C25.3214 11.0323 25.2436 10.8993 25.1421 10.7852C25.0407 10.6711 24.9177 10.5782 24.7802 10.5119C24.6427 10.4456 24.4934 10.4072 24.341 10.3989C24.1886 10.3906 24.036 10.4125 23.8921 10.4635C23.7482 10.5144 23.6159 10.5934 23.5026 10.6958C23.3894 10.7981 23.2975 10.9219 23.2324 11.06C23.1672 11.198 23.1301 11.3476 23.123 11.5001C23.116 11.6526 23.1392 11.8049 23.1913 11.9484L23.9237 14.0168C23.9396 14.0616 23.9582 14.1055 23.9795 14.148C24.3145 14.8282 24.8064 15.4191 25.4144 15.872C26.0225 16.3249 26.7295 16.6269 27.4771 16.7532C27.83 16.8177 28.188 16.8498 28.5467 16.8492C29.3399 16.8437 30.1264 16.7026 30.872 16.4319C31.8905 19.3941 33.8074 21.965 36.3558 23.7864C38.9043 25.6079 41.9573 26.5892 45.0897 26.5938H56.6562C57.2783 26.5939 57.8755 26.8383 58.3191 27.2744C58.7628 27.7105 59.0174 28.3033 59.0282 28.9253C59.039 29.5473 58.8051 30.1487 58.3769 30.5999C57.9487 31.0511 57.3603 31.3161 56.7386 31.3378C56.73 31.3378 56.721 31.3378 56.7123 31.3391L43.3039 32.1137C42.9984 32.1278 42.6955 32.1751 42.4003 32.2547C41.6482 31.2199 40.6623 30.3772 39.523 29.7953C38.3837 29.2135 37.1231 28.9088 35.8438 28.9062H33.5312C33.2246 28.9062 32.9305 29.0281 32.7137 29.2449C32.4968 29.4617 32.375 29.7558 32.375 30.0625C32.3758 31.4597 32.7381 32.8328 33.4267 34.0485C34.1154 35.2642 35.1069 36.281 36.3048 37C35.2025 37.6626 34.2738 38.578 33.5955 39.6707C32.9171 40.7634 32.5087 42.0018 32.4039 43.2836C27.4959 44.142 22.6306 46.0969 17.8785 49.127C17.4457 49.4032 17.0372 49.7156 16.6572 50.0609C15.5232 48.1918 13.9267 46.6465 12.0217 45.5739C10.1167 44.5014 7.96744 43.9378 5.78125 43.9375H3.46875C3.16209 43.9375 2.868 44.0593 2.65116 44.2762C2.43432 44.493 2.3125 44.7871 2.3125 45.0938C2.31484 47.529 3.01535 49.9126 4.33101 51.9619C5.64668 54.0113 7.52232 55.6404 9.73563 56.6562C7.52232 57.6721 5.64668 59.3012 4.33101 61.3506C3.01535 63.3999 2.31484 65.7835 2.3125 68.2188C2.3125 68.5254 2.43432 68.8195 2.65116 69.0363C2.868 69.2532 3.16209 69.375 3.46875 69.375H5.78125C7.96741 69.3747 10.1166 68.8111 12.0216 67.7385C13.9266 66.666 15.5231 65.1207 16.6571 63.2516C17.037 63.5969 17.4456 63.9093 17.8784 64.1855C24.4821 68.3962 31.3046 70.5312 38.1562 70.5312C42.4979 70.5244 46.8303 70.1299 51.1018 69.3526L51.135 69.3454C66.4826 65.8044 71.336 57.5784 71.5352 57.2299C71.635 57.0552 71.6875 56.8575 71.6875 56.6562C71.6875 56.455 71.635 56.2573 71.5352 56.0826C71.336 55.7341 66.4826 47.5089 51.1352 43.9671ZM62.6439 37.0136C59.9367 36.2999 59.2233 34.1085 59.036 33.0085C60.091 32.3896 60.8605 31.3808 61.1783 30.1997C61.5486 30.2291 61.9093 30.2439 62.2603 30.244C64.7228 30.2606 67.1305 29.5179 69.1557 28.117C68.5374 31.8081 66.5636 35.2838 62.6437 37.0136H62.6439ZM55.1242 24.2812H48.0445C48.7497 23.3426 49.2953 22.2942 49.6595 21.1782C49.7075 21.0341 49.7267 20.882 49.7159 20.7305C49.7052 20.5791 49.6647 20.4312 49.5968 20.2954C49.5288 20.1596 49.4348 20.0384 49.3201 19.9389C49.2054 19.8395 49.0722 19.7635 48.9282 19.7155C48.7841 19.6675 48.632 19.6483 48.4805 19.6591C48.3291 19.6698 48.1812 19.7103 48.0454 19.7782C47.9095 19.8462 47.7884 19.9402 47.6889 20.0549C47.5895 20.1696 47.5135 20.3028 47.4655 20.4468C47.1007 21.5993 46.4802 22.6545 45.6505 23.5336C45.3869 23.8091 45.096 24.057 44.7823 24.2737C41.6654 24.1942 38.686 22.9739 36.4088 20.8442C34.1316 18.7145 32.7148 15.8233 32.427 12.7188H56.6562C58.2279 12.7173 59.7861 13.0086 61.251 13.5778C60.8435 19.5685 56.2841 23.3996 55.1242 24.2812ZM58.3058 24.5819C60.2425 22.6797 62.8604 19.3269 63.4656 14.6994C65.2001 15.7995 66.6425 17.303 67.6696 19.0817C68.6967 20.8604 69.278 22.8613 69.3637 24.9134C68.352 25.9974 65.6514 28.2864 61.2135 27.8805C61.0343 27.1354 60.6757 26.4453 60.1689 25.8704C59.6621 25.2955 59.0225 24.8532 58.3058 24.5819ZM49.6098 34.066L56.7959 33.6509C57.0778 35.0257 57.8284 36.7258 59.388 37.9503C58.4842 38.0905 57.5708 38.1593 56.6562 38.1562H51.2613C50.6222 37.6332 49.0448 36.0962 49.6098 34.066ZM43.423 34.423L47.2241 34.2035C47.0177 35.7325 47.4959 37.0874 48.1867 38.1562H43.3857C42.9061 38.1288 42.4554 37.9178 42.1273 37.5669C41.7992 37.216 41.6189 36.7522 41.6237 36.2718C41.6285 35.7915 41.8181 35.3314 42.1531 34.9871C42.4882 34.6429 42.9429 34.4408 43.423 34.423ZM34.8031 31.2188H35.8438C36.7258 31.2206 37.5958 31.4234 38.3877 31.8118C39.1796 32.2002 39.8725 32.764 40.414 33.4603C39.834 34.0907 39.4625 34.8846 39.3501 35.7338C38.2323 35.5114 37.2049 34.9645 36.3962 34.1615C35.5875 33.3585 35.0334 32.3349 34.8031 31.2188ZM39.7708 38.1996C40.0614 38.7661 40.4775 39.2587 40.9873 39.64C40.5007 40.5851 39.7634 41.3781 38.8562 41.9321C37.9489 42.4862 36.9068 42.7799 35.8438 42.7812H34.8031C35.0479 41.5938 35.6589 40.5131 36.5502 39.6912C37.4414 38.8692 38.5681 38.3476 39.7714 38.1996H39.7708ZM5.78125 67.0625H4.68874C4.95384 64.7266 6.00068 62.5489 7.65932 60.8828C9.31796 59.2168 11.491 58.1603 13.8257 57.8848C13.9942 59.1134 14.4185 60.2929 15.0713 61.3473C14.2028 63.0659 12.8747 64.51 11.2346 65.5189C9.59458 66.5279 7.70682 67.0622 5.78125 67.0625ZM13.8257 55.4277C11.491 55.1522 9.31796 54.0957 7.65932 52.4297C6.00068 50.7636 4.95384 48.5859 4.68874 46.25H5.78125C7.70682 46.2503 9.59458 46.7846 11.2346 47.7936C12.8747 48.8025 14.2028 50.2466 15.0713 51.9652C14.4185 53.0196 13.9942 54.1991 13.8257 55.4277ZM54.3043 66.0834C53.0947 66.4677 51.8699 66.8028 50.6332 67.0879C46.515 67.8269 42.3402 68.2053 38.1562 68.2188C31.7521 68.2188 25.348 66.2057 19.1215 62.2352C18.1815 61.6389 17.4073 60.8149 16.8709 59.8395C16.3345 58.8641 16.0533 57.769 16.0533 56.6558C16.0533 55.5427 16.3345 54.4475 16.8709 53.4722C17.4073 52.4968 18.1815 51.6727 19.1215 51.0765C25.348 47.1068 31.7521 45.0938 38.1562 45.0938C42.3402 45.1082 46.515 45.4866 50.6333 46.2247C51.8701 46.5098 53.0948 46.8449 54.3044 47.2291C53.7577 48.4152 52.0312 52.4913 52.0312 56.6562C52.0312 60.8212 53.7577 64.8974 54.3043 66.0834ZM65.5 60.3284C63.6159 61.8365 60.691 63.7296 56.5003 65.3192C56.2257 64.7455 54.3438 60.6651 54.3438 56.6562C54.3438 52.664 56.225 48.571 56.5004 47.9933C60.6911 49.5832 63.616 51.4765 65.5 52.9841C67.4383 54.536 68.5883 55.9155 69.1352 56.6562C68.5873 57.3983 67.4383 58.7772 65.5 60.3284Z" fill="white"></path>
      <path id="Vector_3" d="M62.4375 56.6562C63.0761 56.6562 63.5938 56.1386 63.5938 55.5C63.5938 54.8614 63.0761 54.3438 62.4375 54.3438C61.7989 54.3438 61.2812 54.8614 61.2812 55.5C61.2812 56.1386 61.7989 56.6562 62.4375 56.6562Z" fill="white"></path>
      <path id="Vector_4" d="M42.7486 51.5254C42.7034 51.3405 42.6132 51.1697 42.4861 51.028C42.359 50.8863 42.1989 50.7782 42.02 50.7133L33.1006 47.4758C32.8278 47.3767 32.5277 47.3839 32.26 47.4959C31.9922 47.6079 31.7764 47.8164 31.6553 48.0802C31.5902 48.2215 30.0627 51.6053 30.0627 56.6562C30.0627 61.7072 31.5898 65.091 31.6548 65.2324C31.7759 65.4962 31.9918 65.7048 32.2595 65.8167C32.5273 65.9287 32.8273 65.9359 33.1002 65.8369L42.0196 62.5994C42.1985 62.5345 42.3587 62.4264 42.4858 62.2847C42.6129 62.143 42.7031 61.9722 42.7483 61.7873C42.7936 61.6024 42.7925 61.4092 42.7451 61.2248C42.6978 61.0405 42.6056 60.8706 42.4769 60.7304C42.4649 60.7176 41.2949 59.3675 41.2949 56.6562C41.2949 53.9632 42.4367 52.6277 42.4769 52.5821C42.6057 52.4419 42.6978 52.2721 42.7452 52.0878C42.7926 51.9035 42.7938 51.7103 42.7486 51.5254ZM39.8315 60.7809C39.8519 60.8254 39.8725 60.8688 39.893 60.911L33.3891 63.2716C32.8264 61.502 32.4961 59.6668 32.4063 57.8121H33.5314C33.8381 57.8121 34.1322 57.6902 34.349 57.4734C34.5659 57.2566 34.6877 56.9625 34.6877 56.6558C34.6877 56.3492 34.5659 56.0551 34.349 55.8382C34.1322 55.6214 33.8381 55.4996 33.5314 55.4996H32.4061C32.496 53.6448 32.8263 51.8096 33.3889 50.0399L39.8928 52.4007C39.8723 52.4433 39.8518 52.4867 39.8314 52.5307C39.2715 53.8338 38.9827 55.2372 38.9827 56.6554C38.9827 58.0736 39.2715 59.477 39.8314 60.78L39.8315 60.7809ZM4.01728 33.9828C4.03174 33.9923 4.04619 34.0017 4.06064 34.0107L8.09393 36.4901V39.3125C8.09496 40.2322 8.46075 41.1138 9.11104 41.7641C9.76134 42.4144 10.643 42.7802 11.5627 42.7812C12.2716 42.7812 12.8799 42.5292 13.5241 42.2624C14.2807 41.949 15.0631 41.625 16.1877 41.625C17.3123 41.625 18.0946 41.949 18.8512 42.2624C19.4954 42.5292 20.1045 42.7812 20.8127 42.7812C21.7323 42.7802 22.614 42.4144 23.2643 41.7641C23.9146 41.1138 24.2804 40.2322 24.2814 39.3125V36.4901L28.3146 34.0107C28.329 34.0017 28.3435 33.9923 28.3579 33.9828C30.0896 32.8086 30.586 30.2739 29.4419 28.4481C27.0615 24.6475 22.0396 20.8125 16.1877 20.8125C10.3358 20.8125 5.31387 24.6475 2.93301 28.4481C1.78919 30.2739 2.28565 32.8086 4.01728 33.9828ZM21.9689 39.3125C21.9686 39.6191 21.8467 39.9129 21.6299 40.1297C21.4131 40.3465 21.1192 40.4684 20.8127 40.4688C20.5637 40.4688 20.1802 40.3098 19.7362 40.1259C18.9073 39.7827 17.7723 39.3125 16.1877 39.3125C14.603 39.3125 13.468 39.7827 12.6391 40.1259C12.1951 40.3098 11.8117 40.4688 11.5627 40.4688C11.2561 40.4684 10.9622 40.3465 10.7455 40.1297C10.5287 39.9129 10.4068 39.6191 10.4064 39.3125V37H21.9689V39.3125ZM4.89271 29.6757C6.93522 26.4151 11.22 23.125 16.1877 23.125C21.1554 23.125 25.4401 26.4151 27.4827 29.6757C27.9634 30.4429 27.7694 31.5707 27.078 32.0563L22.7983 34.6875H21.5272L23.0031 31.7359C23.1374 31.462 23.158 31.146 23.0604 30.857C22.9628 30.5679 22.7549 30.3291 22.482 30.1927C22.2092 30.0562 21.8934 30.0331 21.6036 30.1285C21.3138 30.2238 21.0734 30.4298 20.9348 30.7016L18.9419 34.6875H17.3439V30.0625C17.3439 29.7558 17.2221 29.4617 17.0053 29.2449C16.7884 29.0281 16.4943 28.9062 16.1877 28.9062C15.881 28.9062 15.5869 29.0281 15.3701 29.2449C15.1532 29.4617 15.0314 29.7558 15.0314 30.0625V34.6875H13.4335L11.4406 30.7016C11.3734 30.5646 11.2797 30.4422 11.165 30.3416C11.0503 30.2409 10.9168 30.164 10.7722 30.1152C10.6277 30.0664 10.4749 30.0467 10.3226 30.0572C10.1704 30.0677 10.0217 30.1083 9.88525 30.1765C9.74876 30.2448 9.62714 30.3394 9.52739 30.4549C9.42763 30.5703 9.35173 30.7044 9.30405 30.8494C9.25636 30.9943 9.23784 31.1473 9.24956 31.2995C9.26128 31.4516 9.303 31.5999 9.37231 31.7359L10.8481 34.6875H9.57711L5.29711 32.057C4.60596 31.5707 4.412 30.4429 4.89271 29.6757Z" fill="white"></path>
    </g>
  </g>
</svg>
