<?xml version="1.0" encoding="UTF-8"?>
<svg xmlns="http://www.w3.org/2000/svg" width="74" height="74" viewBox="0 0 74 74" fill="none">
  <g id="Frame" clip-path="url(#clip0_1_1513)">
    <g id="Group">
      <g id="Clip path group">
        <mask id="mask0_1_1513" style="mask-type:luminance" maskUnits="userSpaceOnUse" x="0" y="0" width="74" height="74">
          <g id="a">
            <path id="Vector" d="M72.2498 72.25V1.75021H1.75V72.25H72.2498Z" fill="white" stroke="white" stroke-width="3.5"></path>
          </g>
        </mask>
        <g mask="url(#mask0_1_1513)">
          <g id="Group_2">
            <path id="Vector_2" d="M61.3279 17.8786C64.5476 19.7762 66.7081 23.2795 66.7081 27.2873V27.4264C66.7081 33.4536 61.8219 38.3397 55.7947 38.3397H50.4556" stroke="white" stroke-width="2.5" stroke-miterlimit="10" stroke-linecap="round" stroke-linejoin="round"></path>
            <path id="Vector_3" d="M30.9294 38.3397H18.178C12.1508 38.3397 7.26465 33.4536 7.26465 27.4264V27.2873C7.26465 21.2601 12.1508 16.3741 18.178 16.3741H55.7948" stroke="white" stroke-width="2.5" stroke-miterlimit="10" stroke-linecap="round" stroke-linejoin="round"></path>
            <path id="Vector_4" d="M12.6484 27.3917V27.3221C12.6484 24.2727 15.1136 21.7918 18.1436 21.7918" stroke="white" stroke-width="2.5" stroke-miterlimit="10" stroke-linecap="round" stroke-linejoin="round"></path>
            <path id="Vector_5" d="M72.2649 31.8028C73.0938 30.9632 73.2495 29.7597 72.0279 28.5225C71.6325 28.122 71.0812 27.707 70.4886 27.3568C71.0812 27.0066 71.6325 26.5918 72.0279 26.1912C73.2495 24.954 73.0938 23.7505 72.2649 22.9109C71.4359 22.0713 70.2476 21.9138 69.026 23.151C67.7719 24.4213 66.708 25.889 66.708 27.3568C66.708 28.8247 67.7718 30.2926 69.026 31.5627C70.2476 32.8 71.4359 32.6423 72.2649 31.8028Z" stroke="white" stroke-width="2.5" stroke-miterlimit="10" stroke-linecap="round" stroke-linejoin="round"></path>
            <path id="Vector_6" d="M1.73469 22.9109C0.90581 23.7505 0.750151 24.954 1.97173 26.1912C2.36716 26.5918 2.9184 27.0066 3.51098 27.3568C2.9184 27.707 2.36716 28.122 1.97173 28.5225C0.750151 29.7597 0.90581 30.9632 1.73469 31.8028C2.56372 32.6423 3.75206 32.8 4.97363 31.5627C6.22772 30.2926 7.29162 28.8247 7.29162 27.3568C7.29162 25.889 6.22787 24.4213 4.97363 23.151C3.75206 21.9138 2.56372 22.0713 1.73469 22.9109Z" stroke="white" stroke-width="2.5" stroke-miterlimit="10" stroke-linecap="round" stroke-linejoin="round"></path>
            <path id="Vector_7" d="M42.4857 50.5789L36.3008 50.578" stroke="white" stroke-width="2.5" stroke-miterlimit="10" stroke-linecap="round" stroke-linejoin="round"></path>
            <path id="Vector_8" d="M39.0967 29.6599H46.782C48.116 29.6599 49.3157 30.4671 49.823 31.701C50.5386 33.4413 50.784 35.8759 50.4558 38.4859" stroke="white" stroke-width="2.5" stroke-miterlimit="10" stroke-linecap="round" stroke-linejoin="round"></path>
            <path id="Vector_9" d="M29.9946 47.1976C29.4742 44.8539 29.8122 41.5618 31.0918 38.1948C33.2492 32.5172 37.2664 28.7766 40.0645 29.8399C42.8626 30.9032 43.3819 36.3677 41.2245 42.0452C39.8535 45.6533 37.7314 48.4791 35.6482 49.787" stroke="white" stroke-width="2.5" stroke-miterlimit="10" stroke-linecap="round" stroke-linejoin="round"></path>
            <path id="Vector_10" d="M35.9788 36.0075C35.9787 36.0075 35.9787 36.0075 35.9786 36.0075C35.9721 36.0083 35.9508 36.0118 35.9207 36.0255C35.8783 36.0447 35.8417 36.0735 35.8155 36.104C35.786 36.1383 35.778 36.1631 35.7761 36.1726C35.778 36.1822 35.7861 36.2073 35.816 36.2422C35.8424 36.273 35.8792 36.3019 35.9216 36.3211C35.9512 36.3345 35.9721 36.3381 35.9788 36.339C35.9788 36.339 35.9789 36.339 35.9789 36.339C35.9855 36.3381 36.0067 36.3346 36.0368 36.321C36.0793 36.3017 36.1158 36.2729 36.142 36.2424C36.1715 36.2081 36.1795 36.1834 36.1815 36.1739C36.1796 36.1643 36.1715 36.1391 36.1415 36.1042C36.1151 36.0735 36.0784 36.0445 36.0359 36.0253C36.0063 36.0119 35.9854 36.0084 35.9788 36.0075ZM35.7756 36.1769C35.7756 36.1769 35.7758 36.1758 35.7759 36.1735C35.7755 36.1757 35.7755 36.1768 35.7756 36.1769ZM35.7759 36.1716C35.7758 36.1693 35.7757 36.1683 35.7756 36.1683L35.7759 36.1716ZM36.182 36.1696C36.1819 36.1695 36.1817 36.1706 36.1816 36.173C36.182 36.1708 36.1821 36.1696 36.182 36.1696ZM36.1816 36.1748C36.1817 36.1771 36.1819 36.1782 36.182 36.1781L36.1816 36.1748Z" fill="white" stroke="white" stroke-width="2.5"></path>
            <path id="Vector_11" d="M37.6165 41.0179C37.6164 41.0179 37.6164 41.0179 37.6163 41.0179C37.6098 41.0188 37.5885 41.0223 37.5584 41.0359C37.5159 41.0552 37.4794 41.084 37.4532 41.1145C37.4237 41.1488 37.4156 41.1735 37.4137 41.1831C37.4156 41.1927 37.4237 41.2178 37.4536 41.2526C37.48 41.2834 37.5168 41.3123 37.5593 41.3316C37.5889 41.345 37.6098 41.3485 37.6165 41.3494C37.6165 41.3494 37.6165 41.3494 37.6166 41.3494C37.6231 41.3486 37.6444 41.3451 37.6745 41.3314C37.717 41.3122 37.7535 41.2833 37.7797 41.2528C37.8092 41.2185 37.8172 41.1938 37.8192 41.1843C37.8173 41.1747 37.8092 41.1496 37.7792 41.1147C37.7528 41.0839 37.7161 41.055 37.6736 41.0358C37.644 41.0224 37.6231 41.0188 37.6165 41.0179ZM37.4132 41.1874C37.4133 41.1874 37.4135 41.1863 37.4135 41.184C37.4131 41.1862 37.4131 41.1873 37.4132 41.1874ZM37.4135 41.1821C37.4135 41.1798 37.4133 41.1787 37.4132 41.1788L37.4135 41.1821ZM37.8197 41.18C37.8196 41.18 37.8194 41.1811 37.8193 41.1834C37.8197 41.1812 37.8198 41.1801 37.8197 41.18ZM37.8193 41.1852C37.8194 41.1875 37.8196 41.1886 37.8197 41.1886L37.8193 41.1852Z" fill="white" stroke="white" stroke-width="2.5"></path>
            <path id="Vector_12" d="M33.8586 43.7157C33.8586 43.7157 33.8586 43.7157 33.8585 43.7157C33.8519 43.7166 33.8307 43.7201 33.8006 43.7337C33.7581 43.753 33.7216 43.7818 33.6953 43.8123C33.6659 43.8466 33.6578 43.8714 33.6559 43.8809C33.6578 43.8905 33.6659 43.9156 33.6958 43.9504C33.7222 43.9812 33.759 44.0101 33.8014 44.0294C33.8311 44.0428 33.852 44.0463 33.8586 44.0472C33.8587 44.0472 33.8587 44.0472 33.8588 44.0472C33.8653 44.0464 33.8866 44.0429 33.9167 44.0292C33.9591 44.01 33.9957 43.9812 34.0219 43.9507C34.0514 43.9163 34.0594 43.8916 34.0614 43.8821C34.0594 43.8725 34.0514 43.8474 34.0214 43.8125C33.995 43.7817 33.9583 43.7528 33.9158 43.7336C33.8862 43.7202 33.8653 43.7166 33.8586 43.7157ZM33.6554 43.8852C33.6555 43.8852 33.6557 43.8841 33.6557 43.8818C33.6553 43.884 33.6553 43.8851 33.6554 43.8852ZM33.6557 43.8799C33.6557 43.8776 33.6555 43.8765 33.6554 43.8766L33.6557 43.8799ZM34.0619 43.8778C34.0618 43.8778 34.0616 43.8789 34.0615 43.8812C34.0619 43.879 34.062 43.8779 34.0619 43.8778ZM34.0615 43.883C34.0616 43.8853 34.0618 43.8864 34.0618 43.8864L34.0615 43.883Z" fill="white" stroke="white" stroke-width="2.5"></path>
            <path id="Vector_13" d="M51.7189 38.329H59.404C60.7382 38.329 61.9378 39.1361 62.4451 40.3701C63.4811 42.8896 63.5317 46.8643 62.2829 50.7199C60.8769 55.0612 57.8139 59.344 55.1075 59.248C54.7978 59.237 45.771 59.2473 45.771 59.2473" stroke="white" stroke-width="2.5" stroke-miterlimit="10" stroke-linecap="round" stroke-linejoin="round"></path>
            <path id="Vector_14" d="M53.8467 50.7145C51.6893 56.3919 47.6719 60.1327 44.8738 59.0693C42.0756 58.006 41.5563 52.5415 43.7138 46.864C45.8712 41.1864 49.8885 37.4458 52.6867 38.5091C55.4848 39.5724 56.0041 45.0369 53.8467 50.7145Z" stroke="white" stroke-width="2.5" stroke-miterlimit="10" stroke-linecap="round" stroke-linejoin="round"></path>
            <path id="Vector_15" d="M48.6008 44.6766C48.6008 44.6766 48.6008 44.6766 48.6007 44.6766C48.5941 44.6774 48.5729 44.6809 48.5428 44.6946C48.5003 44.7138 48.4637 44.7427 48.4375 44.7732C48.4081 44.8075 48.4 44.8322 48.3981 44.8417C48.4 44.8513 48.4081 44.8764 48.438 44.9113C48.4644 44.9421 48.5011 44.971 48.5436 44.9902C48.5733 45.0036 48.5942 45.0072 48.6008 45.0081C48.6009 45.0081 48.6009 45.0081 48.601 45.0081C48.6075 45.0072 48.6287 45.0037 48.6589 44.9901C48.7013 44.9708 48.7379 44.942 48.7641 44.9115C48.7936 44.8772 48.8016 44.8525 48.8035 44.843C48.8016 44.8334 48.7935 44.8082 48.7636 44.7733C48.7372 44.7426 48.7004 44.7136 48.658 44.6944C48.6284 44.681 48.6075 44.6775 48.6008 44.6766ZM48.3976 44.846C48.3977 44.846 48.3979 44.8449 48.3979 44.8426C48.3975 44.8448 48.3975 44.846 48.3976 44.846ZM48.3979 44.8408C48.3979 44.8385 48.3977 44.8374 48.3976 44.8374L48.3979 44.8408ZM48.8041 44.8387C48.804 44.8386 48.8038 44.8397 48.8037 44.8421C48.8041 44.8399 48.8041 44.8387 48.8041 44.8387ZM48.8037 44.8439C48.8038 44.8462 48.804 44.8473 48.804 44.8472L48.8037 44.8439Z" fill="white" stroke="white" stroke-width="2.5"></path>
            <path id="Vector_16" d="M50.239 49.687C50.2389 49.687 50.2389 49.687 50.2388 49.687C50.2323 49.6879 50.2111 49.6914 50.1809 49.705C50.1385 49.7242 50.1019 49.7531 50.0757 49.7836C50.0462 49.8179 50.0382 49.8426 50.0363 49.8521C50.0382 49.8617 50.0463 49.8869 50.0762 49.9218C50.1026 49.9525 50.1394 49.9815 50.1818 50.0007C50.2114 50.0141 50.2323 50.0176 50.239 50.0185C50.239 50.0185 50.2391 50.0185 50.2391 50.0185C50.2457 50.0177 50.2669 50.0142 50.297 50.0005C50.3395 49.9813 50.3761 49.9524 50.4023 49.9219C50.4317 49.8876 50.4398 49.8629 50.4417 49.8534C50.4398 49.8438 50.4317 49.8186 50.4018 49.7838C50.3754 49.753 50.3387 49.7241 50.2962 49.7049C50.2665 49.6915 50.2456 49.6879 50.239 49.687ZM50.0358 49.8564C50.0358 49.8565 50.036 49.8554 50.0361 49.853C50.0357 49.8552 50.0357 49.8564 50.0358 49.8564ZM50.0361 49.8512C50.036 49.8489 50.0359 49.8478 50.0358 49.8478L50.0361 49.8512ZM50.4422 49.8491C50.4421 49.849 50.4419 49.8501 50.4419 49.8525C50.4423 49.8503 50.4423 49.8491 50.4422 49.8491ZM50.4419 49.8543C50.4419 49.8566 50.4421 49.8577 50.4422 49.8577L50.4419 49.8543Z" fill="white" stroke="white" stroke-width="2.5"></path>
            <path id="Vector_17" d="M46.4812 52.3848C46.4811 52.3848 46.4811 52.3848 46.481 52.3848C46.4745 52.3857 46.4532 52.3892 46.4231 52.4028C46.3807 52.4221 46.3441 52.4509 46.3179 52.4814C46.2884 52.5157 46.2804 52.5404 46.2784 52.5499C46.2804 52.5595 46.2884 52.5847 46.3184 52.6196C46.3448 52.6503 46.3815 52.6793 46.424 52.6985C46.4536 52.7119 46.4745 52.7154 46.4812 52.7163C46.4812 52.7163 46.4812 52.7163 46.4813 52.7163C46.4879 52.7155 46.5091 52.712 46.5392 52.6983C46.5817 52.6791 46.6183 52.6502 46.6445 52.6197C46.6739 52.5854 46.682 52.5607 46.6839 52.5512C46.682 52.5416 46.6739 52.5165 46.644 52.4816C46.6176 52.4509 46.5808 52.4219 46.5384 52.4027C46.5087 52.3893 46.4878 52.3857 46.4812 52.3848ZM46.2779 52.5542C46.278 52.5543 46.2782 52.5532 46.2783 52.5508C46.2779 52.553 46.2779 52.5542 46.2779 52.5542ZM46.2783 52.549C46.2782 52.5467 46.278 52.5456 46.278 52.5457L46.2783 52.549ZM46.6844 52.5469C46.6843 52.5469 46.6841 52.548 46.6841 52.5503C46.6845 52.5481 46.6845 52.5469 46.6844 52.5469ZM46.6841 52.5521C46.6841 52.5544 46.6843 52.5555 46.6844 52.5555L46.6841 52.5521Z" fill="white" stroke="white" stroke-width="2.5"></path>
            <path id="Vector_18" d="M25.8042 65.6263C31.8778 65.6305 36.8031 63.2073 36.8052 60.2139V52.2164" stroke="white" stroke-width="2.5" stroke-miterlimit="10" stroke-linecap="round" stroke-linejoin="round"></path>
            <path id="Vector_19" d="M14.816 52.2164C14.816 54.8772 14.8127 57.5383 14.8105 60.1989C14.8094 62.0976 16.7892 63.7696 19.7875 64.7396" stroke="white" stroke-width="2.5" stroke-miterlimit="10" stroke-linecap="round" stroke-linejoin="round"></path>
            <path id="Vector_20" d="M25.8095 57.6288C19.7359 57.6246 14.8139 55.1948 14.8159 52.2014C14.8179 49.208 19.7433 46.7848 25.8169 46.789C31.8905 46.7931 36.8125 49.223 36.8105 52.2164C36.8084 55.2097 31.8831 57.6329 25.8095 57.6288Z" stroke="white" stroke-width="2.5" stroke-miterlimit="10" stroke-linecap="round" stroke-linejoin="round"></path>
            <path id="Vector_21" d="M29.4402 50.4759C29.4401 50.4759 29.4401 50.4759 29.4401 50.4759C29.4335 50.4767 29.4122 50.4802 29.3821 50.4939C29.3396 50.5131 29.303 50.542 29.2768 50.5725C29.2474 50.6068 29.2393 50.6315 29.2374 50.641C29.2393 50.6506 29.2474 50.6757 29.2773 50.7106C29.3037 50.7413 29.3405 50.7703 29.383 50.7895C29.4126 50.8029 29.4335 50.8065 29.4402 50.8074C29.4402 50.8074 29.4403 50.8074 29.4403 50.8074C29.4469 50.8065 29.4681 50.803 29.4982 50.7894C29.5407 50.7701 29.5773 50.7413 29.6034 50.7108C29.6329 50.6765 29.641 50.6518 29.6429 50.6423C29.641 50.6327 29.6329 50.6075 29.603 50.5726C29.5765 50.5419 29.5398 50.5129 29.4973 50.4937C29.4677 50.4803 29.4468 50.4768 29.4402 50.4759ZM29.2369 50.6453C29.237 50.6453 29.2372 50.6442 29.2372 50.6419C29.2368 50.6441 29.2368 50.6453 29.2369 50.6453ZM29.2372 50.64C29.2372 50.6377 29.237 50.6366 29.2369 50.6367L29.2372 50.64ZM29.6434 50.638C29.6433 50.6379 29.6431 50.639 29.6431 50.6414C29.6435 50.6392 29.6435 50.638 29.6434 50.638ZM29.6431 50.6432C29.6431 50.6455 29.6433 50.6466 29.6434 50.6465L29.6431 50.6432Z" fill="white" stroke="white" stroke-width="2.5"></path>
            <path id="Vector_22" d="M25.3356 53.784C25.3356 53.784 25.3356 53.784 25.3355 53.784C25.329 53.7849 25.3077 53.7884 25.2776 53.802C25.2352 53.8213 25.1986 53.8501 25.1724 53.8806C25.1429 53.9149 25.1349 53.9396 25.1329 53.9491C25.1349 53.9587 25.1429 53.9839 25.1729 54.0188C25.1993 54.0495 25.236 54.0785 25.2785 54.0977C25.3081 54.1111 25.329 54.1146 25.3356 54.1155C25.3357 54.1155 25.3357 54.1155 25.3358 54.1155C25.3423 54.1147 25.3636 54.1112 25.3937 54.0975C25.4362 54.0783 25.4727 54.0494 25.4989 54.0189C25.5284 53.9846 25.5365 53.9599 25.5384 53.9504C25.5365 53.9408 25.5284 53.9157 25.4985 53.8808C25.4721 53.8501 25.4353 53.8211 25.3929 53.8019C25.3632 53.7885 25.3423 53.7849 25.3356 53.784ZM25.1324 53.9534C25.1325 53.9535 25.1327 53.9524 25.1328 53.95C25.1324 53.9522 25.1323 53.9534 25.1324 53.9534ZM25.1328 53.9482C25.1327 53.9459 25.1325 53.9448 25.1324 53.9449L25.1328 53.9482ZM25.5389 53.9461C25.5388 53.9461 25.5386 53.9472 25.5386 53.9495C25.539 53.9473 25.539 53.9461 25.5389 53.9461ZM25.5386 53.9513C25.5386 53.9536 25.5388 53.9547 25.5389 53.9547L25.5386 53.9513Z" fill="white" stroke="white" stroke-width="2.5"></path>
            <path id="Vector_23" d="M21.4812 51.227C21.4811 51.227 21.4811 51.227 21.481 51.227C21.4745 51.2279 21.4532 51.2313 21.4231 51.245C21.3807 51.2642 21.3441 51.2931 21.3179 51.3236C21.2884 51.3579 21.2804 51.3826 21.2784 51.3921C21.2804 51.4017 21.2884 51.4269 21.3184 51.4617C21.3448 51.4925 21.3815 51.5214 21.424 51.5407C21.4536 51.5541 21.4745 51.5576 21.4812 51.5585C21.4812 51.5585 21.4812 51.5585 21.4813 51.5585C21.4879 51.5576 21.5091 51.5541 21.5392 51.5405C21.5817 51.5213 21.6183 51.4924 21.6445 51.4619C21.6739 51.4276 21.682 51.4029 21.6839 51.3934C21.682 51.3838 21.6739 51.3586 21.644 51.3238C21.6176 51.293 21.5808 51.2641 21.5384 51.2448C21.5087 51.2314 21.4878 51.2279 21.4812 51.227ZM21.2779 51.3964C21.278 51.3964 21.2782 51.3953 21.2783 51.393C21.2779 51.3952 21.2779 51.3964 21.2779 51.3964ZM21.2783 51.3912C21.2782 51.3889 21.278 51.3878 21.278 51.3878L21.2783 51.3912ZM21.6844 51.389C21.6843 51.389 21.6841 51.3901 21.6841 51.3924C21.6845 51.3902 21.6845 51.3891 21.6844 51.389ZM21.6841 51.3943C21.6841 51.3966 21.6843 51.3977 21.6844 51.3976L21.6841 51.3943Z" fill="white" stroke="white" stroke-width="2.5"></path>
          </g>
        </g>
      </g>
    </g>
  </g>
  <defs>
    <clipPath id="clip0_1_1513">
      <rect width="74" height="74" fill="white"></rect>
    </clipPath>
  </defs>
</svg>
