<?xml version="1.0" encoding="UTF-8"?>
<svg xmlns="http://www.w3.org/2000/svg" width="74" height="74" viewBox="0 0 74 74" fill="none">
  <g id="Frame">
    <g id="Group">
      <path id="Vector" d="M17.7029 39.175C16.4976 34.5868 13.1238 30.7442 8.51758 29.1371M18.8735 20.8339C21.0665 20.427 23.3097 20.2441 25.5478 20.2827" stroke="white" stroke-width="2.5" stroke-miterlimit="10" stroke-linecap="round" stroke-linejoin="round"></path>
      <path id="Vector_2" d="M14.5098 21.962C13.3251 22.3599 12.1674 22.8299 11.0471 23.3694L6.12927 25.8264C4.86214 26.46 4.60846 28.1611 5.63864 29.1359C5.96701 29.447 6.3895 29.6402 6.83964 29.6849C7.28979 29.7297 7.74204 29.6235 8.12524 29.3831L9.54947 28.492C11.3115 27.3895 13.4368 27.0254 15.4653 27.4786L16.0666 27.6138C17.8701 28.0171 19.7539 27.8571 21.4635 27.1554L21.9619 26.9519C23.8827 26.1638 26.0366 26.1638 27.9575 26.9519L28.4559 27.1554C28.6027 27.2159 28.7507 27.2725 28.9001 27.324H28.9014M9.49924 46.8189C15.1356 48.7853 18.8649 54.2092 18.8584 60.1778V62.4481C18.8584 66.0666 21.7919 69 25.4104 69C27.2196 69 28.8576 68.266 30.0436 67.0813C31.2283 65.8953 31.9623 64.2573 31.9623 62.4481V60.1778C31.9559 54.2105 35.6851 48.7853 41.3215 46.8189" stroke="white" stroke-width="2.5" stroke-miterlimit="10" stroke-linecap="round" stroke-linejoin="round"></path>
      <path id="Vector_3" d="M55.7624 15.111C50.8961 16.8095 47.2338 20.6933 45.6255 25.4167M30.9029 66.02C32.3168 67.8331 34.5227 68.9998 37.0003 68.9998C39.134 68.9998 41.0656 68.1344 42.4641 66.7372C42.7603 66.4411 43.032 66.1217 43.2754 65.7817M29.2739 38.4755V33.4881M18.2381 15.111C24.8841 17.4302 29.2816 23.8263 29.2739 30.8638V31.7536M6.71245 46.8174C5.71626 45.8741 5.9608 44.2278 7.188 43.6148L11.9463 41.2378C20.2271 37.2477 30.5942 37.2474 38.8752 41.2381L43.6332 43.6149C44.8604 44.228 45.1048 45.8744 44.1087 46.8176C43.7907 47.1187 43.3817 47.3057 42.946 47.3491C42.5103 47.3925 42.0725 47.29 41.7014 47.0576L40.3239 46.195C38.6188 45.1274 36.5616 44.7749 34.5984 45.214L34.0161 45.3442C32.2708 45.7347 30.4478 45.58 28.7932 44.9013L28.3116 44.7037C26.4526 43.9411 24.368 43.9411 22.509 44.7037L22.0275 44.9013C20.3729 45.58 18.5499 45.7347 16.8046 45.3442L16.2224 45.214C14.2592 44.7749 12.202 45.1274 10.4969 46.195L9.11959 47.0574C8.74847 47.2898 8.31069 47.3923 7.875 47.3488C7.43931 47.3054 7.03039 47.1184 6.71245 46.8174Z" stroke="white" stroke-width="2.5" stroke-miterlimit="10" stroke-linecap="round" stroke-linejoin="round"></path>
      <path id="Vector_4" d="M47.5452 6.49095C38.9046 3.96701 29.1771 4.64822 21.1224 8.52942L15.5117 11.3315C14.0643 12.0552 13.7759 13.9958 14.9503 15.1084C15.3255 15.4633 15.8078 15.6836 16.3216 15.7349C16.8355 15.7862 17.3518 15.6655 17.7897 15.3917L18.2379 15.111L19.4136 14.3744C21.4237 13.115 23.8498 12.7004 26.1651 13.218L26.8515 13.3713C28.9096 13.8315 31.0595 13.649 33.0106 12.8485L33.5785 12.6154C35.771 11.7165 38.2291 11.7165 40.4215 12.6154L40.9894 12.8485C42.9406 13.649 45.0904 13.8315 47.1486 13.3713L47.835 13.218C50.1503 12.7004 52.5751 13.115 54.5865 14.3744L55.7622 15.111L56.2103 15.3917C56.5915 15.6299 57.019 15.7471 57.4465 15.7471C58.0273 15.7471 58.6042 15.5295 59.0498 15.1084C60.2242 13.9958 59.9357 12.0552 58.4883 11.3315L52.8777 8.52942C52.5158 8.35558 52.1514 8.18689 51.7831 8.02592M55.8111 51.9569V47.9083C55.8047 41.7414 59.6576 36.1359 65.4819 34.1039M55.8111 56.464V62.2291C55.8111 64.0989 55.0539 65.791 53.828 67.0169C52.6021 68.2428 50.91 69 49.0403 69C45.3007 69 42.2694 65.9687 42.2694 62.2291V47.9083C42.2694 47.7023 42.2655 47.4976 42.2565 47.2941M41.2096 42.4046C39.6862 38.5994 36.6098 35.5037 32.5986 34.1039" stroke="white" stroke-width="2.5" stroke-miterlimit="10" stroke-linecap="round" stroke-linejoin="round"></path>
      <path id="Vector_5" d="M29.7184 34.1021C28.6891 33.1274 28.9416 31.4262 30.2098 30.7928L35.1267 28.3366C43.6835 24.2134 54.3962 24.2133 62.9533 28.3368L67.87 30.793C69.1381 31.4266 69.3906 33.1278 68.3613 34.1025C68.0328 34.4136 67.6102 34.6067 67.16 34.6516C66.7097 34.6964 66.2573 34.5905 65.8738 34.3504L64.4505 33.4592C62.6886 32.3559 60.5629 31.9917 58.5342 32.4455L57.9326 32.58C56.1292 32.9835 54.2454 32.8237 52.5357 32.1222L52.038 31.9181C50.117 31.13 47.963 31.13 46.042 31.9181L45.5444 32.1222C43.8347 32.8237 41.9508 32.9835 40.1474 32.58L39.5458 32.4455C37.5171 31.9916 35.3913 32.3559 33.6294 33.4592L32.2062 34.3504C31.8226 34.5904 31.3702 34.6962 30.9199 34.6513C30.4696 34.6064 30.047 34.4132 29.7184 34.1021Z" stroke="white" stroke-width="2.5" stroke-miterlimit="10" stroke-linecap="round" stroke-linejoin="round"></path>
    </g>
  </g>
</svg>
