<?xml version="1.0" encoding="UTF-8"?>
<svg xmlns="http://www.w3.org/2000/svg" width="74" height="74" viewBox="0 0 74 74" fill="none">
  <g id="Frame">
    <g id="Group">
      <path id="Vector" fill-rule="evenodd" clip-rule="evenodd" d="M35.6292 65.3554H35.6836C36.3353 65.3698 36.8752 64.8531 36.8895 64.2014C36.9038 63.5497 36.3872 63.0098 35.7355 62.9955C28.1095 62.6557 22.7479 60.9731 21.0264 58.3784C20.7116 57.9017 20.5216 57.3535 20.474 56.7843C20.4263 56.215 20.5226 55.6429 20.7538 55.1205C20.8122 54.9743 20.8407 54.8178 20.8377 54.6604C20.8347 54.503 20.8002 54.3477 20.7362 54.2038C20.6723 54.06 20.5802 53.9303 20.4653 53.8226C20.3505 53.7149 20.2153 53.6312 20.0676 53.5765C19.9199 53.5219 19.7628 53.4973 19.6055 53.5043C19.4482 53.5114 19.2939 53.5498 19.1517 53.6173C19.0094 53.6849 18.8822 53.7803 18.7774 53.8978C18.6726 54.0153 18.5924 54.1526 18.5415 54.3016C18.1809 55.1726 18.0396 56.1188 18.1301 57.0572C18.2207 57.9955 18.5402 58.8973 19.0607 59.6833C21.234 62.9661 27.1196 64.9803 35.6292 65.3554Z" fill="white"></path>
      <path id="Vector_2" d="M13.3699 55.8357C13.2968 57.3331 13.5321 58.8295 14.0614 60.2321C15.6389 64.3619 20.6254 69.4156 35.4183 70.074C36.1097 70.1047 36.7894 70.12 37.4608 70.12C60.5227 70.12 71.3698 52.382 72.5604 50.3042C72.7478 49.9726 72.8232 49.5894 72.7755 49.2115C72.7278 48.8336 72.5594 48.4812 72.2954 48.2067C72.0315 47.9321 71.686 47.75 71.3103 47.6875C70.9346 47.6249 70.5487 47.6852 70.21 47.8594C67.6717 49.0329 65.0051 49.9061 62.2643 50.4611C65.3451 37.6411 55.2897 30.2547 55.1847 30.178C54.9883 30.0379 54.7537 29.9613 54.5124 29.9586C54.2711 29.956 54.0348 30.0274 53.8354 30.1632C53.6359 30.299 53.4829 30.4926 53.3969 30.7181C53.311 30.9435 53.2962 31.1899 53.3546 31.424C54.0945 34.3892 53.1268 37.7403 51.7569 39.0087C51.5649 39.2353 51.3094 39.3992 51.0233 39.4791C50.7373 39.559 50.4338 39.5513 50.1521 39.4571C48.7444 38.9851 48.82 37.6447 49.8642 32.5544C50.2183 30.8152 50.6241 28.8423 50.9462 26.5839C51.7993 20.5982 47.5315 16.8376 45.7085 15.2318C45.5268 15.0721 45.3004 14.9721 45.0599 14.9453C44.8195 14.9186 44.5766 14.9664 44.3643 15.0823C44.1519 15.1982 43.9803 15.3766 43.8727 15.5933C43.7652 15.81 43.7268 16.0545 43.7628 16.2937C44.1168 18.6053 43.9327 20.3056 43.2578 21.0961C43.0495 21.3112 42.7956 21.4768 42.5149 21.581C42.2342 21.6851 41.9337 21.7251 41.6355 21.698C41.3169 21.7152 40.9991 21.6528 40.7107 21.5164C40.4223 21.38 40.1724 21.174 39.9836 20.9169C37.7417 17.9966 39.5306 8.78593 40.4096 5.48218C40.4691 5.2574 40.4608 5.02004 40.3859 4.79991C40.311 4.57978 40.1727 4.38669 39.9884 4.24488C39.8042 4.10307 39.5821 4.01885 39.3501 4.00281C39.1182 3.98677 38.8866 4.03961 38.6846 4.15471C32.219 7.56542 29.0389 15.0491 31.0716 22.0709L31.2522 22.6113C32.1596 25.2992 34.9242 33.4797 32.9737 36.1982C32.7482 36.4959 32.4492 36.7298 32.106 36.8768C31.7628 37.0239 31.3872 37.0792 31.0162 37.0371C30.4971 37.0744 29.9766 36.9886 29.497 36.7867C29.0174 36.5847 28.5923 36.2723 28.2563 35.8749C26.5985 33.8124 27.1106 29.3853 27.448 27.8513C27.5019 27.6079 27.4772 27.3537 27.3777 27.1252C27.2781 26.8967 27.1087 26.7055 26.8938 26.5792C26.6789 26.4529 26.4295 26.3979 26.1814 26.4221C25.9333 26.4463 25.6993 26.5485 25.5128 26.7139C19.3383 32.197 19.1211 39.8336 20.1914 45.6294C18.8415 46.1589 17.6147 46.9597 16.5867 47.9823C13.9234 46.8194 11.4888 45.1907 9.39741 43.1729C9.02995 42.7537 8.5822 42.4125 8.08061 42.1693C7.57902 41.9261 7.03378 41.7859 6.47709 41.757C5.35812 41.6975 4.26097 42.0826 3.42463 42.8284C3.00827 43.1972 2.66878 43.6446 2.42558 44.1449C2.18239 44.6451 2.04028 45.1885 2.0074 45.7437C1.97451 46.299 2.05149 46.8553 2.23393 47.3808C2.41637 47.9062 2.70069 48.3906 3.07059 48.806C6.00291 51.8098 9.50414 54.1995 13.3699 55.8357ZM24.7421 31.1137C24.5918 33.3202 25.1795 35.514 26.4129 37.3497C26.9665 38.0272 27.6714 38.5654 28.4708 38.9209C29.2702 39.2765 30.1419 39.4395 31.0158 39.3969C31.7631 39.4395 32.5091 39.295 33.1865 38.9767C33.8639 38.6584 34.4513 38.1763 34.8955 37.5739C37.2365 34.3114 35.5008 27.797 33.4937 21.856L33.3143 21.325C31.9383 16.4252 33.553 11.1731 37.4441 7.8926C36.6181 12.0341 35.6741 19.1764 38.1178 22.361C38.5321 22.8688 39.0495 23.2829 39.6358 23.5759C40.2221 23.8688 40.8639 24.0339 41.5188 24.0602C42.1737 24.0865 42.8267 23.9735 43.4346 23.7286C44.0425 23.4837 44.5915 23.1124 45.0452 22.6395C45.8379 21.63 46.2721 20.3855 46.2795 19.102C47.1686 20.0494 47.8383 21.181 48.2408 22.4164C48.6434 23.6518 48.769 24.9606 48.6087 26.25C48.296 28.4388 47.9007 30.3798 47.5467 32.0801C46.545 36.9697 45.8205 40.5036 49.4004 41.6965C50.0828 41.923 50.8152 41.9535 51.5141 41.7845C52.2131 41.6156 52.8506 41.254 53.3543 40.7408C55.0328 38.9353 55.9643 36.5605 55.9609 34.0954C60.1654 38.6203 61.59 45.0673 59.6836 50.9425C59.234 51.0121 58.7832 51.0793 58.342 51.1289C50.0164 52.0635 42.3727 50.8221 32.787 46.9697C29.4831 45.6434 25.8831 44.5437 22.4778 45.0287C21.7227 40.7727 21.7381 35.4795 24.7421 31.1137ZM24.2301 47.2788C26.885 47.4263 29.4894 48.0664 31.9102 49.1666C41.8854 53.1785 49.8724 54.4646 58.611 53.4804C59.3697 53.3955 60.1449 53.274 60.9296 53.1359C60.9426 53.1359 60.9579 53.1359 60.9721 53.1288C63.8752 52.6132 66.7232 51.8251 69.4783 50.7749C61.8968 61.9647 49.0252 68.3868 35.5256 67.7153C24.826 67.2433 18.1664 64.3595 16.2655 59.3872C15.7217 57.7379 15.6163 55.9755 15.9597 54.2731C16.3031 52.5708 17.0835 50.987 18.2241 49.6775C19.0106 48.8914 19.9483 48.2731 20.9807 47.86C22.013 47.4468 23.1184 47.2475 24.2301 47.274V47.2788ZM4.99711 44.6028C5.36959 44.2722 5.85523 44.098 6.3529 44.1166C6.60446 44.1311 6.85045 44.1965 7.07599 44.3089C7.30152 44.4212 7.50189 44.5782 7.66495 44.7703C9.84104 46.8946 12.3648 48.6306 15.1269 49.903C14.4907 50.9952 14.0169 52.1741 13.7204 53.4028C10.4003 51.922 7.38608 49.8339 4.83305 47.2459C4.6685 47.0624 4.54189 46.8481 4.4605 46.6154C4.3791 46.3827 4.34454 46.1362 4.35879 45.8901C4.37304 45.644 4.43583 45.4032 4.54354 45.1815C4.65125 44.9597 4.80176 44.7615 4.98639 44.5982L4.99711 44.6028Z" fill="white"></path>
    </g>
  </g>
</svg>
